<svg width="26" height="40" viewBox="0 0 26 40" fill="none" xmlns="http://www.w3.org/2000/svg">
  <path
    d="M25.0406 27.2269C25.0406 22.409 20.4777 17.3669 17.3615 11.7647C14.2453 6.38655 12.4647 -5.49713e-07 12.4647 -5.49713e-07C12.4647 -5.49713e-07 10.3501 6.4986 7.34526 11.8768C4.1178 17.479 -9.9422e-07 22.7451 -1.19502e-06 27.3389C-1.49868e-06 34.2857 5.56459 40 12.576 40C19.4761 39.888 25.0406 34.2857 25.0406 27.2269ZM5.89846 23.5294C5.89846 21.1765 8.1243 18.3754 9.79368 15.4622C11.3518 12.6611 12.4647 9.29972 12.4647 9.29972C12.4647 9.29972 13.355 12.6611 15.0244 15.4622C16.6938 18.3754 19.0309 20.9524 19.0309 23.5294C19.0309 27.2269 16.1373 30.1401 12.4647 30.1401C8.79205 30.1401 5.89846 27.2269 5.89846 23.5294Z"
    fill="#2196F3" />
</svg>
