<svg width="26" height="40" viewBox="0 0 26 40" fill="none" xmlns="http://www.w3.org/2000/svg">
<path d="M25.0813 27.2269C25.0813 22.409 20.5183 17.3669 17.4022 11.7647C14.286 6.38655 12.5053 -5.49713e-07 12.5053 -5.49713e-07C12.5053 -5.49713e-07 10.3908 6.4986 7.38591 11.8768C4.15844 17.479 0.0406484 22.7451 0.0406482 27.3389C0.0406479 34.2857 5.60524 40 12.6166 40C19.5167 39.888 25.0813 34.2857 25.0813 27.2269ZM5.93911 23.5294C5.93911 21.1765 8.16495 18.3754 9.83433 15.4622C11.3924 12.6611 12.5053 9.29972 12.5053 9.29972C12.5053 9.29972 13.3957 12.6611 15.065 15.4622C16.7344 18.3754 19.0715 20.9524 19.0715 23.5294C19.0715 27.2269 16.178 30.1401 12.5053 30.1401C8.8327 30.1401 5.93911 27.2269 5.93911 23.5294Z" fill="#212121"/>
</svg>
