<svg width="376" height="312" viewBox="0 0 376 312" fill="none" xmlns="http://www.w3.org/2000/svg">
<path d="M152.312 22.888C242.773 0.0135345 272.575 60.5258 309.887 119.311C347.2 178.096 386.081 251.353 321.703 297.347H53.5006C53.5006 297.347 14.3374 287.658 13.6759 236.227C13.1896 198.393 51.9683 193.263 64.6621 135.237C77.3559 77.2106 106.277 34.5286 152.312 22.888Z" fill="#2196F3"/>
<path opacity="0.7" d="M152.312 22.888C242.773 0.0135345 272.575 60.5258 309.887 119.311C347.2 178.096 386.081 251.353 321.703 297.347H53.5006C53.5006 297.347 14.3374 287.658 13.6759 236.227C13.1896 198.393 51.9683 193.263 64.6621 135.237C77.3559 77.2106 106.277 34.5286 152.312 22.888Z" fill="white"/>
<path d="M317.996 206.758H297.208C296.656 206.758 296.209 207.193 296.209 207.732V213.939C296.209 214.477 296.656 214.913 297.208 214.913H298.564C298.066 215.775 297.295 217.165 297.488 217.165C297.704 217.165 299.874 215.632 300.881 214.913H317.996C318.546 214.913 318.994 214.477 318.994 213.939V207.732C318.994 207.193 318.547 206.758 317.996 206.758Z" stroke="#212121" stroke-miterlimit="10" stroke-linecap="round" stroke-linejoin="round"/>
<path d="M312.645 218.566H333.432C333.983 218.566 334.431 219.002 334.431 219.54V225.748C334.431 226.285 333.983 226.721 333.432 226.721H332.076C332.573 227.584 333.345 228.973 333.151 228.973C332.936 228.973 330.766 227.44 329.759 226.721H312.645C312.093 226.721 311.645 226.285 311.645 225.748V219.54C311.645 219.002 312.092 218.566 312.645 218.566Z" stroke="#212121" stroke-miterlimit="10" stroke-linecap="round" stroke-linejoin="round"/>
<path d="M312.645 193.998H333.432C333.983 193.998 334.431 194.434 334.431 194.972V201.18C334.431 201.718 333.983 202.154 333.432 202.154H332.076C332.573 203.016 333.345 204.405 333.151 204.405C332.936 204.405 330.766 202.872 329.759 202.154H312.645C312.093 202.154 311.645 201.718 311.645 201.18V194.972C311.645 194.434 312.092 193.998 312.645 193.998Z" stroke="#212121" stroke-miterlimit="10" stroke-linecap="round" stroke-linejoin="round"/>
<path d="M64.6623 157.642C65.2267 154.376 62.7296 152.018 59.8091 152.04C56.9634 152.062 54.4496 156.66 54.4496 156.66C54.4496 156.66 51.0698 153.367 48.1023 153.078C45.0186 152.778 42.4157 155.934 43.8087 160.054C45.8218 166.005 55.0681 169.903 55.0681 169.903C55.0681 169.903 63.5256 164.224 64.6623 157.642Z" stroke="#212121" stroke-miterlimit="10" stroke-linecap="round" stroke-linejoin="round"/>
<path d="M44.5983 169.179C44.1868 167.47 42.4706 166.817 41.0482 167.411C39.6616 167.991 39.3997 170.74 39.3997 170.74C39.3997 170.74 37.0547 169.806 35.5438 170.259C33.9741 170.728 33.3652 172.791 34.9126 174.526C37.1486 177.033 42.4881 177.091 42.4881 177.091C42.4881 177.091 45.427 172.624 44.5983 169.179Z" stroke="#212121" stroke-miterlimit="10" stroke-linecap="round" stroke-linejoin="round"/>
<path d="M49.6999 173.021C41.7112 181.02 46.9505 192.162 55.3364 192.028C64.8334 191.877 64.0645 176.842 59.6013 183.764C55.1382 190.686 66.3204 202.401 72.1821 195.646" stroke="#212121" stroke-miterlimit="10" stroke-linecap="round" stroke-linejoin="round"/>
<path d="M234.131 100.267C234.131 81.4937 213.388 66.2756 187.799 66.2756C162.211 66.2756 141.468 81.4937 141.468 100.267C141.468 117.962 159.902 132.493 183.449 134.104L187.799 145.177L192.15 134.104C215.698 132.493 234.131 117.961 234.131 100.267Z" fill="white" stroke="#212121" stroke-miterlimit="10" stroke-linecap="round" stroke-linejoin="round"/>
<path d="M191.071 95.0122V89.6079L188.031 89.3736C187.734 88.225 187.271 87.1448 186.663 86.1538L188.642 83.8924L184.722 80.0704L182.403 82.0004C181.386 81.4075 180.277 80.9551 179.099 80.6672L178.858 77.7027H173.315L173.074 80.6672C171.896 80.9551 170.787 81.4075 169.772 82.0004L167.452 80.0704L163.531 83.8924L165.511 86.1538C164.903 87.144 164.439 88.225 164.142 89.3728L161.103 89.6079V95.0122L164.142 95.2474C164.439 96.3951 164.903 97.4762 165.511 98.4664L163.531 100.729L167.452 104.55L169.772 102.621C170.787 103.213 171.896 103.665 173.074 103.954L173.315 106.917H178.858L179.099 103.954C180.277 103.665 181.385 103.213 182.403 102.621L184.722 104.55L188.642 100.729L186.663 98.4664C187.271 97.4762 187.734 96.3951 188.031 95.2466L191.071 95.0122ZM176.087 97.5111C173.142 97.5111 170.753 95.183 170.753 92.3109C170.753 89.4387 173.142 87.1106 176.087 87.1106C179.033 87.1106 181.421 89.4387 181.421 92.3109C181.421 95.183 179.033 97.5111 176.087 97.5111Z" fill="#2196F3" stroke="#212121" stroke-miterlimit="10" stroke-linecap="round" stroke-linejoin="round"/>
<path d="M214.494 101.647V97.4676L212.142 97.2868C211.914 96.3983 211.556 95.5632 211.085 94.7973L212.616 93.0489L209.585 90.093L207.79 91.5853C207.004 91.1274 206.148 90.7774 205.238 90.5539L205.05 88.2615H200.763L200.579 90.5539C199.666 90.7774 198.809 91.1266 198.024 91.5853L196.23 90.093L193.198 93.0489L194.73 94.7973C194.258 95.5632 193.899 96.3983 193.671 97.2868L191.32 97.4676V101.647L193.671 101.829C193.899 102.717 194.258 103.553 194.73 104.318L193.198 106.067L196.23 109.023L198.024 107.531C198.809 107.989 199.666 108.339 200.579 108.562L200.763 110.854H205.05L205.238 108.562C206.149 108.339 207.004 107.99 207.79 107.531L209.585 109.023L212.616 106.067L211.085 104.318C211.556 103.552 211.914 102.717 212.142 101.828L214.494 101.647ZM202.907 103.58C200.628 103.58 198.782 101.78 198.782 99.5583C198.782 97.3373 200.627 95.5369 202.907 95.5369C205.184 95.5369 207.032 97.3365 207.032 99.5583C207.032 101.779 205.185 103.58 202.907 103.58Z" fill="#2196F3"/>
<mask id="mask0_58_6154" style="mask-type:luminance" maskUnits="userSpaceOnUse" x="191" y="88" width="24" height="23">
<path d="M214.494 101.647V97.4676L212.142 97.2868C211.914 96.3983 211.556 95.5632 211.085 94.7973L212.616 93.0489L209.585 90.093L207.79 91.5853C207.004 91.1274 206.148 90.7774 205.238 90.5539L205.05 88.2615H200.763L200.579 90.5539C199.666 90.7774 198.809 91.1266 198.024 91.5853L196.23 90.093L193.198 93.0489L194.73 94.7973C194.258 95.5632 193.899 96.3983 193.671 97.2868L191.32 97.4676V101.647L193.671 101.829C193.899 102.717 194.258 103.553 194.73 104.318L193.198 106.067L196.23 109.023L198.024 107.531C198.809 107.989 199.666 108.339 200.579 108.562L200.763 110.854H205.05L205.238 108.562C206.149 108.339 207.004 107.99 207.79 107.531L209.585 109.023L212.616 106.067L211.085 104.318C211.556 103.552 211.914 102.717 212.142 101.828L214.494 101.647ZM202.907 103.58C200.628 103.58 198.782 101.78 198.782 99.5583C198.782 97.3373 200.627 95.5369 202.907 95.5369C205.184 95.5369 207.032 97.3365 207.032 99.5583C207.032 101.779 205.185 103.58 202.907 103.58Z" fill="white"/>
</mask>
<g mask="url(#mask0_58_6154)">
<path opacity="0.5" d="M214.494 101.647V97.4676L212.142 97.2868C211.914 96.3983 211.556 95.5632 211.085 94.7973L212.616 93.0489L209.585 90.093L207.79 91.5853C207.004 91.1274 206.148 90.7774 205.238 90.5539L205.05 88.2615H200.763L200.579 90.5539C199.666 90.7774 198.809 91.1266 198.024 91.5853L196.23 90.093L193.198 93.0489L194.73 94.7973C194.258 95.5632 193.899 96.3983 193.671 97.2868L191.32 97.4676V101.647L193.671 101.829C193.899 102.717 194.258 103.553 194.73 104.318L193.198 106.067L196.23 109.023L198.024 107.531C198.809 107.989 199.666 108.339 200.579 108.562L200.763 110.854H205.05L205.238 108.562C206.149 108.339 207.004 107.99 207.79 107.531L209.585 109.023L212.616 106.067L211.085 104.318C211.556 103.552 211.914 102.717 212.142 101.828L214.494 101.647ZM202.907 103.58C200.628 103.58 198.782 101.78 198.782 99.5583C198.782 97.3373 200.627 95.5369 202.907 95.5369C205.184 95.5369 207.032 97.3365 207.032 99.5583C207.032 101.779 205.185 103.58 202.907 103.58Z" fill="white"/>
</g>
<path d="M214.494 101.647V97.4676L212.142 97.2868C211.914 96.3983 211.556 95.5632 211.085 94.7973L212.616 93.0489L209.585 90.093L207.79 91.5853C207.004 91.1274 206.148 90.7774 205.238 90.5539L205.05 88.2615H200.763L200.579 90.5539C199.666 90.7774 198.809 91.1266 198.024 91.5853L196.23 90.093L193.198 93.0489L194.73 94.7973C194.258 95.5632 193.899 96.3983 193.671 97.2868L191.32 97.4676V101.647L193.671 101.829C193.899 102.717 194.258 103.553 194.73 104.318L193.198 106.067L196.23 109.023L198.024 107.531C198.809 107.989 199.666 108.339 200.579 108.562L200.763 110.854H205.05L205.238 108.562C206.149 108.339 207.004 107.99 207.79 107.531L209.585 109.023L212.616 106.067L211.085 104.318C211.556 103.552 211.914 102.717 212.142 101.828L214.494 101.647ZM202.907 103.58C200.628 103.58 198.782 101.78 198.782 99.5583C198.782 97.3373 200.627 95.5369 202.907 95.5369C205.184 95.5369 207.032 97.3365 207.032 99.5583C207.032 101.779 205.185 103.58 202.907 103.58Z" stroke="#212121" stroke-miterlimit="10" stroke-linecap="round" stroke-linejoin="round"/>
<path d="M194.288 116.21V113.204L192.6 113.075C192.433 112.436 192.177 111.835 191.838 111.284L192.939 110.026L190.759 107.901L189.471 108.974C188.905 108.645 188.289 108.393 187.634 108.232L187.5 106.585H184.417L184.284 108.232C183.629 108.393 183.013 108.644 182.447 108.974L181.158 107.901L178.978 110.025L180.079 111.283C179.741 111.834 179.483 112.434 179.318 113.073L177.628 113.203V116.209L179.318 116.339C179.483 116.977 179.741 117.579 180.079 118.129L178.978 119.387L181.158 121.512L182.447 120.438C183.013 120.768 183.629 121.02 184.284 121.18L184.417 122.829H187.5L187.634 121.18C188.288 121.02 188.905 120.768 189.471 120.438L190.759 121.512L192.939 119.387L191.838 118.129C192.177 117.578 192.435 116.977 192.6 116.339L194.288 116.21ZM185.959 117.599C184.321 117.599 182.993 116.305 182.993 114.707C182.993 113.109 184.321 111.816 185.959 111.816C187.598 111.816 188.925 113.109 188.925 114.707C188.925 116.305 187.597 117.599 185.959 117.599Z" fill="#2196F3"/>
<mask id="mask1_58_6154" style="mask-type:luminance" maskUnits="userSpaceOnUse" x="177" y="106" width="18" height="17">
<path d="M194.288 116.21V113.204L192.6 113.075C192.433 112.436 192.177 111.835 191.838 111.284L192.939 110.026L190.759 107.901L189.471 108.974C188.905 108.645 188.289 108.393 187.634 108.232L187.5 106.585H184.417L184.284 108.232C183.629 108.393 183.013 108.644 182.447 108.974L181.158 107.901L178.978 110.025L180.079 111.283C179.741 111.834 179.483 112.434 179.318 113.073L177.628 113.203V116.209L179.318 116.339C179.483 116.977 179.741 117.579 180.079 118.129L178.978 119.387L181.158 121.512L182.447 120.438C183.013 120.768 183.629 121.02 184.284 121.18L184.417 122.829H187.5L187.634 121.18C188.288 121.02 188.905 120.768 189.471 120.438L190.759 121.512L192.939 119.387L191.838 118.129C192.177 117.578 192.435 116.977 192.6 116.339L194.288 116.21ZM185.959 117.599C184.321 117.599 182.993 116.305 182.993 114.707C182.993 113.109 184.321 111.816 185.959 111.816C187.598 111.816 188.925 113.109 188.925 114.707C188.925 116.305 187.597 117.599 185.959 117.599Z" fill="white"/>
</mask>
<g mask="url(#mask1_58_6154)">
<path opacity="0.7" d="M194.288 116.21V113.204L192.6 113.075C192.433 112.436 192.177 111.835 191.838 111.284L192.939 110.026L190.759 107.901L189.471 108.974C188.905 108.645 188.289 108.393 187.634 108.232L187.5 106.585H184.417L184.284 108.232C183.629 108.393 183.013 108.644 182.447 108.974L181.158 107.901L178.978 110.025L180.079 111.283C179.741 111.834 179.483 112.434 179.318 113.073L177.628 113.203V116.209L179.318 116.339C179.483 116.977 179.741 117.579 180.079 118.129L178.978 119.387L181.158 121.512L182.447 120.438C183.013 120.768 183.629 121.02 184.284 121.18L184.417 122.829H187.5L187.634 121.18C188.288 121.02 188.905 120.768 189.471 120.438L190.759 121.512L192.939 119.387L191.838 118.129C192.177 117.578 192.435 116.977 192.6 116.339L194.288 116.21ZM185.959 117.599C184.321 117.599 182.993 116.305 182.993 114.707C182.993 113.109 184.321 111.816 185.959 111.816C187.598 111.816 188.925 113.109 188.925 114.707C188.925 116.305 187.597 117.599 185.959 117.599Z" fill="white"/>
</g>
<path d="M194.288 116.21V113.204L192.6 113.075C192.433 112.436 192.177 111.835 191.838 111.284L192.939 110.026L190.759 107.901L189.471 108.974C188.905 108.645 188.289 108.393 187.634 108.232L187.5 106.585H184.417L184.284 108.232C183.629 108.393 183.013 108.644 182.447 108.974L181.158 107.901L178.978 110.025L180.079 111.283C179.741 111.834 179.483 112.434 179.318 113.073L177.628 113.203V116.209L179.318 116.339C179.483 116.977 179.741 117.579 180.079 118.129L178.978 119.387L181.158 121.512L182.447 120.438C183.013 120.768 183.629 121.02 184.284 121.18L184.417 122.829H187.5L187.634 121.18C188.288 121.02 188.905 120.768 189.471 120.438L190.759 121.512L192.939 119.387L191.838 118.129C192.177 117.578 192.435 116.977 192.6 116.339L194.288 116.21ZM185.959 117.599C184.321 117.599 182.993 116.305 182.993 114.707C182.993 113.109 184.321 111.816 185.959 111.816C187.598 111.816 188.925 113.109 188.925 114.707C188.925 116.305 187.597 117.599 185.959 117.599Z" stroke="#212121" stroke-miterlimit="10" stroke-linecap="round" stroke-linejoin="round"/>
<path d="M261.654 213.475L256.003 217.674C247.199 214.368 247.764 213.623 239.342 212.435C234.98 211.822 225.946 212.078 218.352 212.466C211.49 212.808 205.799 213.258 205.799 213.258C205.799 213.258 222.586 196.992 227.203 194.579C231.748 192.212 252.094 183.699 252.731 183.435C252.739 183.435 252.747 183.427 252.747 183.427C252.747 183.427 268.022 200.019 261.654 213.475Z" fill="#2196F3"/>
<path opacity="0.2" d="M261.654 213.475L256.002 217.674C247.199 214.368 247.764 213.623 239.342 212.435C234.98 211.822 225.945 212.078 218.352 212.466C227.8 206.095 253.352 211.318 253.352 211.318C253.352 211.318 249.396 206.405 249.085 196.449C248.783 186.865 252.452 183.668 252.731 183.435C252.739 183.435 252.747 183.427 252.747 183.427C252.747 183.427 268.022 200.019 261.654 213.475Z" fill="#363849"/>
<path d="M205.798 213.261C205.798 213.261 222.589 196.991 227.203 194.583C231.817 192.173 252.748 183.427 252.748 183.427C252.748 183.427 268.019 200.019 261.655 213.475L256.002 217.672" stroke="#212121" stroke-miterlimit="10" stroke-linecap="round" stroke-linejoin="round"/>
<path d="M286.481 187.905L260.834 210.604C248.799 200.616 252.675 185.577 252.675 185.577L261.893 179.267L273.021 171.647C273.021 171.647 279.055 174.347 283.218 178.29C286.123 181.052 288.113 184.42 286.481 187.905Z" fill="white"/>
<mask id="mask2_58_6154" style="mask-type:luminance" maskUnits="userSpaceOnUse" x="252" y="171" width="36" height="40">
<path d="M286.481 187.905L260.834 210.604C248.799 200.616 252.675 185.577 252.675 185.577L261.893 179.267L273.021 171.647C273.021 171.647 279.055 174.347 283.218 178.29C286.123 181.052 288.113 184.42 286.481 187.905Z" fill="white"/>
</mask>
<g mask="url(#mask2_58_6154)">
<path opacity="0.2" d="M283.217 178.29C282.851 179.438 282.015 180.602 280.567 181.766C272.272 188.463 265.49 183.396 261.893 179.267L273.021 171.647C273.021 171.647 279.054 174.347 283.217 178.29Z" fill="#2196F3"/>
</g>
<path d="M286.481 187.905L260.834 210.604C248.799 200.616 252.675 185.577 252.675 185.577L261.893 179.267L273.021 171.647C273.021 171.647 279.055 174.347 283.218 178.29C286.123 181.052 288.113 184.42 286.481 187.905Z" stroke="#212121" stroke-miterlimit="10" stroke-linecap="round" stroke-linejoin="round"/>
<path d="M276.133 185.375C276.133 185.375 271.915 184.444 268.826 178.623C265.738 172.795 266.096 145.393 266.788 139.961C267.481 134.529 278.155 131.541 278.657 137.004C278.736 137.835 279.063 139.464 279.548 141.661C280.185 144.478 281.077 148.226 282.032 152.37C285.248 166.253 289.204 184.638 286.481 187.905" fill="white"/>
<mask id="mask3_58_6154" style="mask-type:luminance" maskUnits="userSpaceOnUse" x="266" y="134" width="22" height="54">
<path d="M276.133 185.375C276.133 185.375 271.915 184.444 268.826 178.623C265.738 172.795 266.096 145.393 266.788 139.961C267.481 134.529 278.155 131.541 278.657 137.004C278.736 137.835 279.063 139.464 279.548 141.661C280.185 144.478 281.077 148.226 282.032 152.37C285.248 166.253 289.204 184.638 286.481 187.905" fill="white"/>
</mask>
<g mask="url(#mask3_58_6154)">
<path opacity="0.2" d="M282.032 152.37C277.311 148.963 273.968 142.553 273.968 142.553L279.548 141.661C280.185 144.478 281.077 148.226 282.032 152.37Z" fill="#2196F3"/>
</g>
<path d="M276.133 185.375C276.133 185.375 271.915 184.444 268.826 178.623C265.738 172.795 266.096 145.393 266.788 139.961C267.481 134.529 278.155 131.541 278.657 137.004C278.736 137.835 279.063 139.464 279.548 141.661C280.185 144.478 281.077 148.226 282.032 152.37C285.248 166.253 289.204 184.638 286.481 187.905" stroke="#212121" stroke-miterlimit="10" stroke-linecap="round" stroke-linejoin="round"/>
<path d="M309.287 103.58C309.287 103.58 309.28 103.641 309.265 103.73C308.852 108.13 303.326 107.297 296.041 108.525C290.493 109.456 283.241 113.833 277.916 117.527C273.721 120.429 270.728 122.905 270.728 122.905C270.728 122.905 264.615 118.939 259.091 107.912C259.091 107.912 279.086 95.6734 281.419 80.5329C283.257 68.6596 300.905 80.2924 307.543 96.5271C308.865 99.7469 309.398 101.997 309.287 103.58Z" fill="white"/>
<mask id="mask4_58_6154" style="mask-type:luminance" maskUnits="userSpaceOnUse" x="259" y="75" width="51" height="48">
<path d="M309.287 103.58C309.287 103.58 309.28 103.641 309.265 103.73C308.852 108.13 303.326 107.297 296.041 108.525C290.493 109.456 283.241 113.833 277.916 117.527C273.721 120.429 270.728 122.905 270.728 122.905C270.728 122.905 264.615 118.939 259.091 107.912C259.091 107.912 279.086 95.6734 281.419 80.5329C283.257 68.6596 300.905 80.2924 307.543 96.5271C308.865 99.7469 309.398 101.997 309.287 103.58Z" fill="white"/>
</mask>
<g mask="url(#mask4_58_6154)">
<path opacity="0.15" d="M309.265 103.73C308.852 108.13 303.326 107.297 296.041 108.525C290.493 109.456 283.241 113.833 277.916 117.527C275.488 116.13 274.151 114.779 274.692 113.608C277.152 108.292 286.401 106.585 286.401 106.585C286.401 106.585 285.613 103.1 287.054 101.416C288.495 99.7243 293.796 103.1 301.358 105.723C308.145 108.081 309.132 104.499 309.265 103.73Z" fill="#363849"/>
</g>
<path d="M309.287 103.58C309.287 103.58 309.28 103.641 309.265 103.73C308.852 108.13 303.326 107.297 296.041 108.525C290.493 109.456 283.241 113.833 277.916 117.527C273.721 120.429 270.728 122.905 270.728 122.905C270.728 122.905 264.615 118.939 259.091 107.912C259.091 107.912 279.086 95.6734 281.419 80.5329C283.257 68.6596 300.905 80.2924 307.543 96.5271C308.865 99.7469 309.398 101.997 309.287 103.58Z" stroke="#212121" stroke-miterlimit="10" stroke-linecap="round" stroke-linejoin="round"/>
<path d="M288.455 90.3653C293.347 88.5611 295.238 85.3172 296.179 86.0482C297.123 86.7793 300.52 89.1881 299.969 90.5943C299.419 92.0005 295.02 96.9787 294.581 97.8665" stroke="#212121" stroke-miterlimit="10" stroke-linecap="round" stroke-linejoin="round"/>
<path d="M286.176 77.7089C283.541 77.9495 283.894 84.7103 290.347 93.0194C296.801 101.328 303.178 105.129 306.008 104.177C308.837 103.226 306.872 99.6079 306.872 99.6079" stroke="#212121" stroke-miterlimit="10" stroke-linecap="round" stroke-linejoin="round"/>
<path d="M279.906 117.58C279.906 117.58 267.624 126.621 265.021 126.536C262.41 126.458 258.844 126.388 255.413 121.926C252.762 118.473 253.152 115.493 253.917 113.39C254.132 112.769 254.386 112.233 254.601 111.775C255.135 110.642 265.291 100.67 265.291 100.67L267.815 101.322C267.815 101.322 269.455 110.27 279.452 116.478L279.906 117.58Z" fill="#2196F3"/>
<mask id="mask5_58_6154" style="mask-type:luminance" maskUnits="userSpaceOnUse" x="253" y="100" width="27" height="27">
<path d="M279.906 117.58C279.906 117.58 267.624 126.621 265.021 126.536C262.41 126.458 258.844 126.388 255.413 121.926C252.762 118.473 253.152 115.493 253.917 113.39C254.132 112.769 254.386 112.233 254.601 111.775C255.135 110.642 265.291 100.67 265.291 100.67L267.815 101.322C267.815 101.322 269.455 110.27 279.452 116.478L279.906 117.58Z" fill="white"/>
</mask>
<g mask="url(#mask5_58_6154)">
<path opacity="0.2" d="M279.906 117.58C279.906 117.58 267.624 126.621 265.021 126.536C262.41 126.458 258.844 126.388 255.413 121.926C252.762 118.473 253.152 115.493 253.917 113.39C254.553 115.819 255.779 119.303 257.745 120.684C260.89 122.904 273.968 115.772 273.968 115.772C273.968 115.772 266.708 107.057 267.815 101.322C267.815 101.322 269.455 110.27 279.452 116.478L279.906 117.58Z" fill="#363849"/>
</g>
<path d="M279.906 117.58C279.906 117.58 267.624 126.621 265.021 126.536C262.41 126.458 258.844 126.388 255.413 121.926C252.762 118.473 253.152 115.493 253.917 113.39C254.132 112.769 254.386 112.233 254.601 111.775C255.135 110.642 265.291 100.67 265.291 100.67L267.815 101.322C267.815 101.322 269.455 110.27 279.452 116.478L279.906 117.58Z" stroke="#212121" stroke-miterlimit="10" stroke-linecap="round" stroke-linejoin="round"/>
<path opacity="0.15" d="M286.176 77.7089C283.541 77.9495 283.894 84.7103 290.347 93.0194C296.801 101.328 303.178 105.129 306.008 104.177C308.837 103.226 306.872 99.6079 306.872 99.6079C306.872 99.6079 305.128 92.4855 298.843 85.9427C291.48 78.2778 286.176 77.7089 286.176 77.7089Z" fill="#363849"/>
<path d="M289.776 131.581C289.49 135.026 280.06 147.577 273.968 144.856L289.776 131.581Z" fill="white"/>
<path d="M289.776 131.581C289.49 135.026 280.06 147.577 273.968 144.856" stroke="#212121" stroke-miterlimit="10" stroke-linecap="round" stroke-linejoin="round"/>
<path d="M266.903 125.519C266.903 125.519 271.752 138.687 275.258 141.104C278.764 143.523 287.816 136.173 287.002 134.929C286.188 133.683 277.434 125.76 276.053 119.311C276.053 119.311 271.928 119.871 266.903 125.519Z" fill="#2196F3"/>
<mask id="mask6_58_6154" style="mask-type:luminance" maskUnits="userSpaceOnUse" x="266" y="119" width="22" height="23">
<path d="M266.903 125.519C266.903 125.519 271.752 138.687 275.258 141.104C278.764 143.523 287.816 136.173 287.002 134.929C286.188 133.683 277.434 125.76 276.053 119.311C276.053 119.311 271.928 119.871 266.903 125.519Z" fill="white"/>
</mask>
<g mask="url(#mask6_58_6154)">
<path opacity="0.2" d="M266.903 125.519C266.903 125.519 271.752 138.687 275.258 141.104C278.764 143.523 287.816 136.173 287.002 134.929C286.188 133.683 277.434 125.76 276.053 119.311C276.053 119.311 271.928 119.871 266.903 125.519Z" fill="#363849"/>
</g>
<path d="M266.903 125.519C266.903 125.519 271.752 138.687 275.258 141.104C278.764 143.523 287.816 136.173 287.002 134.929C286.188 133.683 277.434 125.76 276.053 119.311C276.053 119.311 271.928 119.871 266.903 125.519Z" stroke="#212121" stroke-miterlimit="10" stroke-linecap="round" stroke-linejoin="round"/>
<path d="M289.577 132.68C290.403 129.963 288.385 130.699 288.709 128.148C289.034 125.596 287.351 125.603 286.818 122.968C286.287 120.335 284.621 120.59 283.651 118.42C282.68 116.249 280.247 117.118 277.891 118.176C275.535 119.235 272.371 124.281 272.371 124.281C271.905 127.526 274.691 126.852 274.691 126.852C272.841 130.187 275.923 130.92 275.923 130.92C275.76 134.504 277.981 134.059 277.981 134.059C277.981 134.059 277.868 135.732 279.537 136.003C280.605 136.178 288.751 135.395 289.577 132.68Z" fill="white" stroke="#212121" stroke-miterlimit="10" stroke-linecap="round" stroke-linejoin="round"/>
<path d="M274.69 126.851C274.69 126.851 279.191 122.218 280.569 121.693" stroke="#212121" stroke-miterlimit="10" stroke-linecap="round" stroke-linejoin="round"/>
<path d="M275.923 130.919C275.923 130.919 278.64 127.956 283.148 126.463" stroke="#212121" stroke-miterlimit="10" stroke-linecap="round" stroke-linejoin="round"/>
<path d="M277.981 134.059C277.981 134.059 283.952 131.19 284.829 130.924" stroke="#212121" stroke-miterlimit="10" stroke-linecap="round" stroke-linejoin="round"/>
<path d="M270.087 144.241C270.087 144.241 265.709 140.293 264.913 138.615C264.117 136.936 262.582 129.718 263.677 127.778C264.771 125.838 267.991 122.609 268.492 121.057C268.993 119.505 271.775 122.907 268.595 129.108C268.595 129.108 272.399 133.601 271.775 138.518" fill="white"/>
<path d="M270.087 144.241C270.087 144.241 265.709 140.293 264.913 138.615C264.117 136.936 262.582 129.718 263.677 127.778C264.771 125.838 267.991 122.609 268.492 121.057C268.993 119.505 271.775 122.907 268.595 129.108C268.595 129.108 272.399 133.601 271.775 138.518" stroke="#212121" stroke-miterlimit="10" stroke-linecap="round" stroke-linejoin="round"/>
<path opacity="0.15" d="M309.287 103.58C309.287 103.58 309.28 103.642 309.265 103.733C309.27 103.679 309.283 103.635 309.287 103.58Z" fill="#363849"/>
<path d="M267.481 259.114C267.481 259.114 265.73 259.805 263.207 256.731C258.407 250.88 251.227 236.826 246.507 230.09C244.485 227.203 238.897 224.363 232.855 221.981C223.51 218.302 213.083 215.702 213.083 215.702C213.083 215.702 238.507 214.174 244.962 216.067C250.55 217.697 270.339 228.732 275.982 231.906C276.946 232.449 277.495 232.76 277.495 232.76C277.495 232.76 278.347 244.447 267.481 259.114Z" fill="#2196F3"/>
<path opacity="0.2" d="M267.481 259.114C267.481 259.114 265.73 259.805 263.206 256.731C258.407 250.88 251.227 236.826 246.506 230.09C244.485 227.203 238.897 224.363 232.855 221.98C255.915 227.118 264.09 249.685 264.09 249.685C264.09 249.685 265.316 236.873 275.982 231.906C276.945 232.449 277.495 232.76 277.495 232.76C277.495 232.76 278.346 244.447 267.481 259.114Z" fill="#363849"/>
<path d="M213.081 215.704C213.081 215.704 238.507 214.177 244.96 216.066C251.495 217.981 277.498 232.76 277.498 232.76C277.498 232.76 278.344 244.448 267.482 259.116" stroke="#212121" stroke-miterlimit="10" stroke-linecap="round" stroke-linejoin="round"/>
<path d="M309.884 269.187C308.57 270.056 306.055 270.048 302.863 269.474C299.934 268.946 296.439 267.945 292.794 266.711C280.575 262.583 266.669 255.878 266.669 255.878C266.669 255.878 266.709 239.954 276.309 233.784C276.309 233.784 288.758 242.095 296.774 244.152C303.492 245.882 309.884 269.187 309.884 269.187Z" fill="white"/>
<mask id="mask7_58_6154" style="mask-type:luminance" maskUnits="userSpaceOnUse" x="266" y="233" width="44" height="37">
<path d="M309.884 269.187C308.57 270.056 306.055 270.048 302.863 269.474C299.934 268.946 296.439 267.945 292.794 266.711C280.575 262.583 266.669 255.878 266.669 255.878C266.669 255.878 266.709 239.954 276.309 233.784C276.309 233.784 288.758 242.095 296.774 244.152C303.492 245.882 309.884 269.187 309.884 269.187Z" fill="white"/>
</mask>
<g mask="url(#mask7_58_6154)">
<path opacity="0.2" d="M302.863 269.474C299.934 268.946 296.439 267.945 292.793 266.711C291.002 258.648 296.208 249.685 296.208 249.685C296.407 258.276 299.822 265.082 302.863 269.474Z" fill="#2196F3"/>
</g>
<path d="M309.884 269.187C308.57 270.056 306.055 270.048 302.863 269.474C299.934 268.946 296.439 267.945 292.794 266.711C280.575 262.583 266.669 255.878 266.669 255.878C266.669 255.878 266.709 239.954 276.309 233.784C276.309 233.784 288.758 242.095 296.774 244.152C303.492 245.882 309.884 269.187 309.884 269.187Z" stroke="#212121" stroke-miterlimit="10" stroke-linecap="round" stroke-linejoin="round"/>
<path d="M298.424 264.594C297.704 262.932 297.155 260.858 296.771 258.317L298.424 264.594Z" fill="white"/>
<path d="M298.424 264.594C297.704 262.932 297.155 260.858 296.771 258.317" stroke="#212121" stroke-miterlimit="10" stroke-linecap="round" stroke-linejoin="round"/>
<path d="M298.429 237.697C301.96 238.239 305.211 245.657 307.4 248.299C307.4 248.299 313.635 251.132 314.697 253.804C315.758 256.476 320.011 267.178 311.579 269.377C306.73 270.642 303.11 270.42 300.593 267.917" fill="white"/>
<path d="M298.429 237.697C301.96 238.239 305.211 245.657 307.4 248.299C307.4 248.299 313.635 251.132 314.697 253.804C315.758 256.476 320.011 267.178 311.579 269.377C306.73 270.642 303.11 270.42 300.593 267.917" stroke="#212121" stroke-miterlimit="10" stroke-linecap="round" stroke-linejoin="round"/>
<path d="M299.225 227.149V227.397C299.185 229.679 298.525 234.203 297.036 242.22C295.643 249.716 295.381 250.298 294.449 250.678C293.311 251.136 285.152 252.906 281.673 253.635C281.387 253.689 281.132 253.744 280.917 253.79C280.416 253.899 279.094 253.224 279.182 252.735C279.596 250.259 282.43 227.878 283.568 227.149C285.295 226.047 296.463 225.007 297.705 225.341C298.286 225.496 299.225 226.567 299.225 227.149Z" fill="#999999"/>
<mask id="mask8_58_6154" style="mask-type:luminance" maskUnits="userSpaceOnUse" x="279" y="225" width="21" height="29">
<path d="M299.225 227.149V227.397C299.185 229.679 298.525 234.203 297.036 242.22C295.643 249.716 295.381 250.298 294.449 250.678C293.311 251.136 285.152 252.906 281.673 253.635C281.387 253.689 281.132 253.744 280.917 253.79C280.416 253.899 279.094 253.224 279.182 252.735C279.596 250.259 282.43 227.878 283.568 227.149C285.295 226.047 296.463 225.007 297.705 225.341C298.286 225.496 299.225 226.567 299.225 227.149Z" fill="white"/>
</mask>
<g mask="url(#mask8_58_6154)">
<path opacity="0.2" d="M299.225 227.397C299.185 229.679 298.525 234.203 297.036 242.22C295.643 249.716 295.38 250.298 294.449 250.678C293.311 251.136 285.152 252.906 281.673 253.635C282.095 250.399 283.369 241.358 285.996 228.973L299.225 227.397Z" fill="#363849"/>
</g>
<path d="M299.225 227.149V227.397C299.185 229.679 298.525 234.203 297.036 242.22C295.643 249.716 295.381 250.298 294.449 250.678C293.311 251.136 285.152 252.906 281.673 253.635C281.387 253.689 281.132 253.744 280.917 253.79C280.416 253.899 279.094 253.224 279.182 252.735C279.596 250.259 282.43 227.878 283.568 227.149C285.295 226.047 296.463 225.007 297.705 225.341C298.286 225.496 299.225 226.567 299.225 227.149Z" stroke="#212121" stroke-miterlimit="10" stroke-linecap="round" stroke-linejoin="round"/>
<path d="M281.513 252.047C281.513 252.047 285.227 230.965 285.559 229.672C285.891 228.378 286.223 228.895 297.367 227.473" stroke="#212121" stroke-miterlimit="10" stroke-linecap="round" stroke-linejoin="round"/>
<path d="M296.77 258.317C296.77 258.317 291 260.325 291.397 256.897C291.397 256.897 290.071 255.992 290.071 254.569C290.071 253.147 291 251.595 291 251.595C291 251.595 288.81 255.28 286.953 253.146C286.466 252.586 288.444 248.579 288.444 248.579C288.444 248.579 286.621 249.654 285.759 247.65C285.496 247.039 288.536 241.525 289.2 241.118C291.429 239.748 297.233 236.835 299.224 237.942C301.215 239.049 301.878 242.541 303.072 243.835C304.266 245.128 303.602 249.525 303.072 252.629" fill="white"/>
<path d="M296.77 258.317C296.77 258.317 291 260.325 291.397 256.897C291.397 256.897 290.071 255.992 290.071 254.569C290.071 253.147 291 251.595 291 251.595C291 251.595 288.81 255.28 286.953 253.146C286.466 252.586 288.444 248.579 288.444 248.579C288.444 248.579 286.621 249.654 285.759 247.65C285.496 247.039 288.536 241.525 289.2 241.118C291.429 239.748 297.233 236.835 299.224 237.942C301.215 239.049 301.878 242.541 303.072 243.835C304.266 245.128 303.602 249.525 303.072 252.629" stroke="#212121" stroke-miterlimit="10" stroke-linecap="round" stroke-linejoin="round"/>
<path d="M288.444 248.579C288.444 248.579 290.535 245.062 291.132 244.61C291.729 244.157 296.77 242.734 296.77 242.734" fill="white"/>
<path d="M288.444 248.579C288.444 248.579 290.535 245.062 291.132 244.61C291.729 244.157 296.77 242.734 296.77 242.734" stroke="#212121" stroke-miterlimit="10" stroke-linecap="round" stroke-linejoin="round"/>
<path d="M291 251.595C292.26 250.236 292.989 248.668 293.52 248.579C294.051 248.49 298.097 247.907 298.429 247.778" fill="white"/>
<path d="M291 251.595C292.26 250.236 292.989 248.668 293.52 248.579C294.051 248.49 298.097 247.907 298.429 247.778" stroke="#212121" stroke-miterlimit="10" stroke-linecap="round" stroke-linejoin="round"/>
<path d="M291.185 256.729C292.592 255.151 294.781 253.534 295.245 253.534C295.71 253.534 298.297 253.211 298.429 253.146" fill="white"/>
<path d="M291.185 256.729C292.592 255.151 294.781 253.534 295.245 253.534C295.71 253.534 298.297 253.211 298.429 253.146" stroke="#212121" stroke-miterlimit="10" stroke-linecap="round" stroke-linejoin="round"/>
<path d="M297.705 257.544C297.705 257.544 296.505 258.578 294.714 258.255L297.705 257.544Z" fill="white"/>
<path d="M297.705 257.544C297.705 257.544 296.505 258.578 294.714 258.255" stroke="#212121" stroke-miterlimit="10" stroke-linecap="round" stroke-linejoin="round"/>
<path d="M296.77 258.317C296.77 258.317 302.027 262.59 304.415 257.544L296.77 258.317Z" fill="white"/>
<path d="M296.77 258.317C296.77 258.317 302.027 262.59 304.415 257.544" stroke="#212121" stroke-miterlimit="10" stroke-linecap="round" stroke-linejoin="round"/>
<path d="M168.1 212.901C168.1 212.901 165.776 212.839 162.409 212.753C154.656 212.567 141.355 212.288 138.202 212.482C132.376 212.847 126.708 215.47 126.708 215.47L113.869 198.397C115.827 174.735 131.301 172.143 131.301 172.143C131.301 172.143 142.23 184.304 146.21 187.618C150.19 190.931 168.1 212.901 168.1 212.901Z" fill="#2196F3"/>
<path opacity="0.2" d="M162.409 212.753C154.656 212.567 141.355 212.288 138.202 212.482C132.376 212.847 126.708 215.47 126.708 215.47L113.869 198.397C115.827 174.735 131.301 172.143 131.301 172.143C131.301 172.143 132.208 186.593 120.372 196.503C120.372 196.503 124.034 206.53 132.025 208.516C140.025 210.503 155.619 208.873 162.409 212.753Z" fill="#363849"/>
<path d="M168.1 212.902C168.1 212.902 150.19 190.931 146.21 187.618C142.23 184.304 131.304 172.144 131.304 172.144C131.304 172.144 115.829 174.734 113.865 198.394L126.708 215.468" stroke="#212121" stroke-miterlimit="10" stroke-linecap="round" stroke-linejoin="round"/>
<path d="M130.282 174.991C130.282 174.991 130.004 187.687 115.827 194.517L91.2862 160.658C89.5589 151.501 108.4 148.086 108.4 148.086L108.408 148.102L117.292 159.021L130.282 174.991Z" fill="white"/>
<mask id="mask9_58_6154" style="mask-type:luminance" maskUnits="userSpaceOnUse" x="91" y="148" width="40" height="47">
<path d="M130.282 174.991C130.282 174.991 130.004 187.687 115.827 194.517L91.2862 160.658C89.5589 151.501 108.4 148.086 108.4 148.086L108.408 148.102L117.292 159.021L130.282 174.991Z" fill="white"/>
</mask>
<g mask="url(#mask9_58_6154)">
<path opacity="0.2" d="M117.292 159.021C109.005 165.408 99.8115 158.516 99.8115 158.516L108.408 148.102L117.292 159.021Z" fill="#2196F3"/>
</g>
<path d="M130.282 174.991C130.282 174.991 130.004 187.687 115.827 194.517L91.2862 160.658C89.5589 151.501 108.4 148.086 108.4 148.086L108.408 148.102L117.292 159.021L130.282 174.991Z" stroke="#212121" stroke-miterlimit="10" stroke-linecap="round" stroke-linejoin="round"/>
<path d="M91.2861 160.658C90.2831 158.563 91.2861 153.48 93.0691 147.59C95.1148 140.83 98.1794 132.992 100.432 127.389C101.674 124.277 102.669 121.856 103.091 120.669C104.953 115.493 114.553 120.925 113.869 126.357C113.176 131.789 115.182 150.934 110.732 155.847C106.275 160.767 101.952 160.658 101.952 160.658" fill="white"/>
<mask id="mask10_58_6154" style="mask-type:luminance" maskUnits="userSpaceOnUse" x="90" y="118" width="24" height="43">
<path d="M91.2861 160.658C90.2831 158.563 91.2861 153.48 93.0691 147.59C95.1148 140.83 98.1794 132.992 100.432 127.389C101.674 124.277 102.669 121.856 103.091 120.669C104.953 115.493 114.553 120.925 113.869 126.357C113.176 131.789 115.182 150.934 110.732 155.847C106.275 160.767 101.952 160.658 101.952 160.658" fill="white"/>
</mask>
<g mask="url(#mask10_58_6154)">
<path opacity="0.2" d="M106.864 124.27C106.864 124.27 103.266 145.215 99.8115 146.441C98.3627 146.953 95.6882 147.326 93.0693 147.59C95.1151 140.83 98.1797 132.992 100.432 127.389L106.864 124.27Z" fill="#2196F3"/>
</g>
<path d="M91.2861 160.658C90.2831 158.563 91.2861 153.48 93.0691 147.59C95.1148 140.83 98.1794 132.992 100.432 127.389C101.674 124.277 102.669 121.856 103.091 120.669C104.953 115.493 114.553 120.925 113.869 126.357C113.176 131.789 115.182 150.934 110.732 155.847C106.275 160.767 101.952 160.658 101.952 160.658" stroke="#212121" stroke-miterlimit="10" stroke-linecap="round" stroke-linejoin="round"/>
<path d="M99.015 136.317C98.293 137.291 96.8969 137.51 95.8979 136.806L62.3592 113.182C61.3602 112.478 61.135 111.117 61.8569 110.143L94.6649 65.8751C95.3868 64.9012 96.7822 64.6816 97.782 65.3855L131.321 89.0104C132.32 89.7142 132.546 91.0754 131.823 92.0493L99.015 136.317Z" fill="#BFBFBF" stroke="#212121" stroke-miterlimit="10"/>
<path d="M106.309 70.4249L103.395 74.3565L120.83 86.6383L123.744 82.7067L106.309 70.4249Z" fill="#2196F3" stroke="#212121" stroke-miterlimit="10" stroke-linecap="round" stroke-linejoin="round"/>
<path d="M96.6063 68.1315L64.6704 111.222L97.0936 134.062L129.029 90.9714L96.6063 68.1315Z" fill="#2196F3"/>
<mask id="mask11_58_6154" style="mask-type:luminance" maskUnits="userSpaceOnUse" x="69" y="69" width="56" height="64">
<path d="M69.305 81.2166L85.3545 132.45L124.408 120.962L108.359 69.7284L69.305 81.2166Z" fill="white"/>
</mask>
<g mask="url(#mask11_58_6154)">
<path opacity="0.7" d="M96.8801 68.1315L64.6704 111.209L96.8198 134.062L129.029 90.9843L96.8801 68.1315Z" fill="white"/>
</g>
<path d="M96.6063 68.1315L64.6704 111.222L97.0936 134.062L129.029 90.9714L96.6063 68.1315Z" stroke="#212121" stroke-width="1.00006" stroke-miterlimit="10" stroke-linecap="round" stroke-linejoin="round"/>
<path d="M120.155 82.9177L118.387 85.3017C118.113 85.6734 117.591 85.7549 117.209 85.4864L112.796 82.3783C113.051 81.6768 112.822 80.8736 112.17 80.415C111.519 79.9563 110.664 79.9959 110.061 80.4514L105.642 77.3388C105.268 77.0749 105.176 76.5612 105.452 76.1902L107.219 73.807C107.489 73.4415 108.023 73.3585 108.397 73.6223L119.966 81.7707C120.346 82.0377 120.425 82.553 120.155 82.9177Z" stroke="#212121" stroke-miterlimit="10" stroke-linecap="round" stroke-linejoin="round"/>
<path d="M110.786 129.291C110.786 129.291 115.848 126.219 116.955 124.717C118.061 123.214 120.963 116.408 120.264 114.301C119.564 112.195 117.026 108.431 116.835 106.816C116.643 105.2 113.252 108.029 115.177 114.704C115.177 114.704 110.572 118.417 110.233 123.36" fill="white"/>
<path d="M110.786 129.291C110.786 129.291 115.848 126.219 116.955 124.717C118.061 123.214 120.963 116.408 120.264 114.301C119.564 112.195 117.026 108.431 116.835 106.816C116.643 105.2 113.252 108.029 115.177 114.704C115.177 114.704 110.572 118.417 110.233 123.36" stroke="#212121" stroke-miterlimit="10" stroke-linecap="round" stroke-linejoin="round"/>
<path d="M108.089 100.674C108.089 106.536 103.215 111.287 97.2025 111.287C91.1903 111.287 86.3164 106.536 86.3164 100.674C86.3164 94.812 91.1903 90.0604 97.2025 90.0604C103.215 90.0611 108.089 94.8128 108.089 100.674Z" fill="white" stroke="#212121" stroke-miterlimit="10" stroke-linecap="round" stroke-linejoin="round"/>
<path d="M91.7837 96.8701L93.1194 104.32L105.292 101.096" fill="white"/>
<path d="M91.7837 96.8701L93.1194 104.32L105.292 101.096" stroke="#212121" stroke-miterlimit="10" stroke-linecap="round" stroke-linejoin="round"/>
<path d="M164.24 216.478C164.24 216.478 148.614 218.907 136.857 225.108C134.445 226.373 132.201 227.809 130.282 229.407C124.814 233.978 120.038 243.446 115.962 250.95C112.476 257.345 109.841 259.89 109.841 259.89C98.9835 245.223 99.8273 233.536 99.8273 233.536C99.8273 233.536 99.8671 233.512 99.9308 233.481C101.698 232.473 126.071 218.682 132.36 216.843C138.815 214.95 164.24 216.478 164.24 216.478Z" fill="#2196F3"/>
<path opacity="0.2" d="M136.857 225.108C134.445 226.373 132.201 227.809 130.282 229.407C124.814 233.978 120.038 243.446 115.962 250.95C112.476 257.345 109.841 259.89 109.841 259.89C98.9835 245.223 99.8273 233.536 99.8273 233.536C99.8273 233.536 99.8671 233.512 99.9308 233.481C100.767 233.117 106.394 231.293 113.869 245.277C113.869 245.277 119.035 228.833 136.857 225.108Z" fill="#363849"/>
<path d="M84.3691 199.704C84.3691 199.704 77.5379 197.975 79.5804 204.215C81.6237 210.454 88.9446 210.255 88.9446 210.255" fill="white"/>
<path d="M84.3691 199.704C84.3691 199.704 77.5379 197.975 79.5804 204.215C81.6237 210.454 88.9446 210.255 88.9446 210.255" stroke="#212121" stroke-miterlimit="10" stroke-linecap="round" stroke-linejoin="round"/>
<path d="M164.243 216.479C164.243 216.479 138.816 214.952 132.363 216.842C125.829 218.756 99.8258 233.536 99.8258 233.536C99.8258 233.536 98.9813 245.223 109.842 259.892" stroke="#212121" stroke-miterlimit="10" stroke-linecap="round" stroke-linejoin="round"/>
<path d="M110.661 256.654C110.661 256.654 72.843 270.01 66.666 262.754C66.666 262.754 69.4679 255.079 73.2728 249.219C75.3185 246.069 77.6667 243.438 80.0229 242.833C83.0477 242.049 86.7889 240.675 90.2674 239.278C95.9986 236.966 101.021 234.56 101.021 234.56C110.613 240.73 110.661 256.654 110.661 256.654Z" fill="white"/>
<mask id="mask12_58_6154" style="mask-type:luminance" maskUnits="userSpaceOnUse" x="66" y="234" width="45" height="31">
<path d="M110.661 256.654C110.661 256.654 72.843 270.01 66.666 262.754C66.666 262.754 69.4679 255.079 73.2728 249.219C75.3185 246.069 77.6667 243.438 80.0229 242.833C83.0477 242.049 86.7889 240.675 90.2674 239.278C95.9986 236.966 101.021 234.56 101.021 234.56C110.613 240.73 110.661 256.654 110.661 256.654Z" fill="white"/>
</mask>
<g mask="url(#mask12_58_6154)">
<path opacity="0.2" d="M90.2675 239.278C89.185 244.268 86.1443 253.573 78.5106 252.968C75.5495 252.735 73.9893 251.245 73.2729 249.219C75.3187 246.069 77.6669 243.438 80.023 242.833C83.0478 242.049 86.789 240.675 90.2675 239.278Z" fill="#2196F3"/>
</g>
<path d="M110.661 256.654C110.661 256.654 72.843 270.01 66.666 262.754C66.666 262.754 69.4679 255.079 73.2728 249.219C75.3185 246.069 77.6667 243.438 80.0229 242.833C83.0477 242.049 86.7889 240.675 90.2674 239.278C95.9986 236.966 101.021 234.56 101.021 234.56C110.613 240.73 110.661 256.654 110.661 256.654Z" stroke="#212121" stroke-miterlimit="10" stroke-linecap="round" stroke-linejoin="round"/>
<path d="M69.5713 264.352C60.6721 264.74 60.1069 244.315 64.5804 213.98C64.5804 213.98 71.4419 200.702 74.61 200.523C75.4617 200.477 76.6398 200.453 77.8975 200.453C81.3123 200.43 85.356 200.523 85.356 200.523C85.356 200.523 87.1868 208.214 87.2027 210.829C87.2266 214.748 85.4595 215.19 85.4595 215.19C85.555 218.884 82.4904 219.257 79.2029 218.752C79.2029 218.752 79.1472 218.938 78.9721 219.218C78.5343 219.932 77.3483 221.259 74.4827 221.616C74.4349 233.45 86.2237 251.369 79.983 255.28" fill="white"/>
<mask id="mask13_58_6154" style="mask-type:luminance" maskUnits="userSpaceOnUse" x="61" y="200" width="27" height="65">
<path d="M69.5713 264.352C60.6721 264.74 60.1069 244.315 64.5804 213.98C64.5804 213.98 71.4419 200.702 74.61 200.523C75.4617 200.477 76.6398 200.453 77.8975 200.453C81.3123 200.43 85.356 200.523 85.356 200.523C85.356 200.523 87.1868 208.214 87.2027 210.829C87.2266 214.748 85.4595 215.19 85.4595 215.19C85.555 218.884 82.4904 219.257 79.2029 218.752C79.2029 218.752 79.1472 218.938 78.9721 219.218C78.5343 219.932 77.3483 221.259 74.4827 221.616C74.4349 233.45 86.2237 251.369 79.983 255.28" fill="white"/>
</mask>
<g mask="url(#mask13_58_6154)">
<path opacity="0.2" d="M87.2027 210.829C87.2266 214.748 85.4595 215.19 85.4595 215.19C85.555 218.884 82.4904 219.257 79.2029 218.752C79.2029 218.752 79.1472 218.938 78.9721 219.218L79.983 216.246C79.983 216.246 81.0417 216.68 81.6785 216.378C83.6685 215.423 82.6257 212.078 82.6257 212.078C82.6257 212.078 83.756 211.783 84.0744 210.255C84.3849 208.726 80.9143 207.694 80.9143 207.694C82.0048 205.917 79.577 204.217 79.577 204.217C80.4447 202.944 79.3143 201.547 77.8975 200.453C81.3123 200.43 85.356 200.523 85.356 200.523C85.356 200.523 87.1868 208.214 87.2027 210.829Z" fill="#2196F3"/>
</g>
<path d="M69.5713 264.352C60.6721 264.74 60.1069 244.315 64.5804 213.98C64.5804 213.98 71.4419 200.702 74.61 200.523C75.4617 200.477 76.6398 200.453 77.8975 200.453C81.3123 200.43 85.356 200.523 85.356 200.523C85.356 200.523 87.1868 208.214 87.2027 210.829C87.2266 214.748 85.4595 215.19 85.4595 215.19C85.555 218.884 82.4904 219.257 79.2029 218.752C79.2029 218.752 79.1472 218.938 78.9721 219.218C78.5343 219.932 77.3483 221.259 74.4827 221.616C74.4349 233.45 86.2237 251.369 79.983 255.28" stroke="#212121" stroke-miterlimit="10" stroke-linecap="round" stroke-linejoin="round"/>
<path d="M85.3968 209.694C84.2975 207.725 83.238 208.862 77.9565 207.618C77.9565 207.618 81.3706 207.95 83.9775 207.338" stroke="#212121" stroke-miterlimit="10" stroke-linecap="round" stroke-linejoin="round"/>
<path d="M77.3433 203.788C78.0581 204.1 81.168 203.873 82.6247 203.788" stroke="#212121" stroke-miterlimit="10" stroke-linecap="round" stroke-linejoin="round"/>
<path d="M79.1988 212.112C79.1805 211.965 83.6484 212.327 84.3752 212.842C85.1019 213.357 85.5564 215.276 85.5564 215.276" stroke="#212121" stroke-miterlimit="10" stroke-linecap="round" stroke-linejoin="round"/>
<path d="M82.6249 216.244C82.2914 216.543 79.9846 216.244 79.9846 216.244C79.9846 216.244 79.8341 217.749 79.1997 218.755" stroke="#212121" stroke-miterlimit="10" stroke-linecap="round" stroke-linejoin="round"/>
<path d="M106.864 197.233C106.864 203.596 104.197 209.137 100.265 212.047H87.6483C83.7081 209.137 81.0415 203.596 81.0415 197.233C81.0415 196.969 81.0654 196.713 81.0733 196.449H106.832C106.848 196.713 106.864 196.969 106.864 197.233Z" fill="#363849"/>
<mask id="mask14_58_6154" style="mask-type:luminance" maskUnits="userSpaceOnUse" x="81" y="196" width="26" height="17">
<path d="M106.864 197.233C106.864 203.596 104.197 209.137 100.265 212.047H87.6483C83.7081 209.137 81.0415 203.596 81.0415 197.233C81.0415 196.969 81.0654 196.713 81.0733 196.449H106.832C106.848 196.713 106.864 196.969 106.864 197.233Z" fill="white"/>
</mask>
<g mask="url(#mask14_58_6154)">
<path opacity="0.2" d="M97.2003 211.318L97.1446 212.047H87.6483C83.7081 209.137 81.0415 203.596 81.0415 197.233C81.0415 196.969 81.0654 196.713 81.0733 196.449H83.8753C85.8095 201.09 90.0602 209.036 97.2003 211.318Z" fill="#363849"/>
</g>
<path d="M106.864 197.233C106.864 203.596 104.197 209.137 100.265 212.047H87.6483C83.7081 209.137 81.0415 203.596 81.0415 197.233C81.0415 196.969 81.0654 196.713 81.0733 196.449H106.832C106.848 196.713 106.864 196.969 106.864 197.233Z" stroke="#212121" stroke-miterlimit="10" stroke-linecap="round" stroke-linejoin="round"/>
<path d="M101.268 211.316H86.6415L85.9609 213.227H101.949L101.268 211.316Z" fill="#212121" stroke="#212121" stroke-miterlimit="10" stroke-linecap="round" stroke-linejoin="round"/>
<path opacity="0.2" d="M101.949 213.227L101.268 211.316H86.6415L85.9609 213.227" fill="#363849"/>
<path d="M89.8119 180.972C87.5934 184.696 93.5435 188.195 90.5935 193.291" stroke="#212121" stroke-miterlimit="10" stroke-linecap="round" stroke-linejoin="round"/>
<path d="M93.6271 180.972C91.4078 184.697 97.3587 188.195 94.4088 193.291" stroke="#212121" stroke-miterlimit="10" stroke-linecap="round" stroke-linejoin="round"/>
<path d="M97.7107 180.972C95.4923 184.697 101.443 188.195 98.4924 193.291" stroke="#212121" stroke-miterlimit="10" stroke-linecap="round" stroke-linejoin="round"/>
<path d="M247.141 235.612C241.484 226.205 218.074 218.013 192.071 217.002C192.002 217 191.931 216.995 191.862 216.993C191.012 216.96 190.158 216.936 189.302 216.92L189.299 216.895C188.865 216.895 188.433 216.903 187.999 216.908C187.566 216.903 187.133 216.895 186.699 216.895L186.696 216.92C185.84 216.936 184.988 216.96 184.136 216.993C184.063 216.995 183.99 217.001 183.917 217.003C157.918 218.016 134.514 226.206 128.858 235.612C122.813 245.664 113.864 261.835 113.864 261.835C118.881 269.754 138.143 270.813 138.143 270.813L139.169 292.111H181.578H194.42H236.829L237.854 270.813C237.854 270.813 257.117 269.754 262.134 261.835C262.135 261.835 253.186 245.664 247.141 235.612Z" fill="#2196F3" stroke="#212121" stroke-miterlimit="10" stroke-linecap="round" stroke-linejoin="round"/>
<path d="M159.296 284.436C159.296 284.436 114.283 291.801 111.043 285.786C110.717 285.181 110.502 284.459 110.39 283.644C109.332 276.389 115.787 262.078 115.787 262.078C120.794 261.613 126.048 262.878 130.25 264.375C130.258 264.383 130.258 264.383 130.258 264.375C135.146 266.129 138.616 268.217 138.648 268.31L138.314 269.024L138.202 269.249L148.718 269.575L158.126 269.87L158.341 269.878V269.893L159.296 284.436Z" fill="white"/>
<mask id="mask15_58_6154" style="mask-type:luminance" maskUnits="userSpaceOnUse" x="110" y="261" width="50" height="28">
<path d="M159.296 284.436C159.296 284.436 114.283 291.801 111.043 285.786C110.717 285.181 110.502 284.459 110.39 283.644C109.332 276.389 115.787 262.078 115.787 262.078C120.794 261.613 126.048 262.878 130.25 264.375C130.258 264.383 130.258 264.383 130.258 264.375C135.146 266.129 138.616 268.217 138.648 268.31L138.314 269.024L138.202 269.249L148.718 269.575L158.126 269.87L158.341 269.878V269.893L159.296 284.436Z" fill="white"/>
</mask>
<g mask="url(#mask15_58_6154)">
<path opacity="0.2" d="M138.314 269.024C128.013 269.218 124.105 270.599 124.105 270.599C124.105 270.599 126.708 266.603 130.25 264.375C130.258 264.383 130.258 264.383 130.258 264.375C135.146 266.129 138.616 268.217 138.648 268.31L138.314 269.024Z" fill="#2196F3"/>
<path opacity="0.2" d="M159.296 284.436C159.296 284.436 114.283 291.801 111.043 285.786C110.717 285.181 110.502 284.459 110.39 283.644C111.544 284.071 112.722 284.351 113.869 284.389C119.759 284.591 149.466 281.014 149.466 281.014L148.718 269.575L148.694 269.202C151.543 269.342 154.68 269.552 158.126 269.87C158.198 269.878 158.27 269.885 158.341 269.893L159.296 284.436Z" fill="#2196F3"/>
</g>
<path d="M159.296 284.436C159.296 284.436 114.283 291.801 111.043 285.786C110.717 285.181 110.502 284.459 110.39 283.644C109.332 276.389 115.787 262.078 115.787 262.078C120.794 261.613 126.048 262.878 130.25 264.375C130.258 264.383 130.258 264.383 130.258 264.375C135.146 266.129 138.616 268.217 138.648 268.31L138.314 269.024L138.202 269.249L148.718 269.575L158.126 269.87L158.341 269.878V269.893L159.296 284.436Z" stroke="#212121" stroke-miterlimit="10" stroke-linecap="round" stroke-linejoin="round"/>
<path d="M138.201 269.246C138.201 269.246 127.569 268.972 123.037 270.997" stroke="#212121" stroke-miterlimit="10" stroke-linecap="round" stroke-linejoin="round"/>
<path d="M233.886 266.305C233.886 266.305 229.718 247.515 237.8 238.419" stroke="#212121" stroke-miterlimit="10" stroke-linecap="round" stroke-linejoin="round"/>
<path d="M240.97 247.778C240.97 247.778 235.496 251.645 234.502 257.93" stroke="#212121" stroke-miterlimit="10" stroke-linecap="round" stroke-linejoin="round"/>
<path d="M138.201 236.227C138.201 236.227 145.579 250.268 141.317 267.341" stroke="#212121" stroke-miterlimit="10" stroke-linecap="round" stroke-linejoin="round"/>
<path d="M132.848 242.734C132.848 242.734 138.68 246.197 141.317 251.595" stroke="#212121" stroke-miterlimit="10" stroke-linecap="round" stroke-linejoin="round"/>
<path d="M205.798 219.226C205.798 219.226 197.172 240.696 171.492 229.056" stroke="#212121" stroke-miterlimit="10" stroke-linecap="round" stroke-linejoin="round"/>
<path d="M245.806 233.784C245.806 233.784 240.243 236.945 237.736 243.929" stroke="#212121" stroke-miterlimit="10" stroke-linecap="round" stroke-linejoin="round"/>
<path d="M130.195 233.784C130.195 233.784 134.589 236.04 137.083 241.472" stroke="#212121" stroke-miterlimit="10" stroke-linecap="round" stroke-linejoin="round"/>
<path d="M168.1 218.524C168.1 218.524 170.96 229.961 187.374 230.22" stroke="#212121" stroke-miterlimit="10" stroke-linecap="round" stroke-linejoin="round"/>
<path d="M221.565 230.22C221.565 230.22 191.051 259.278 169.426 260.335" stroke="#212121" stroke-miterlimit="10" stroke-linecap="round" stroke-linejoin="round"/>
<path d="M152.312 235.134C152.312 235.134 156.538 244.384 164.243 247.778" stroke="#212121" stroke-miterlimit="10" stroke-linecap="round" stroke-linejoin="round"/>
<path d="M216.937 284.436C216.937 284.436 261.951 291.801 265.191 285.786C265.517 285.181 265.732 284.459 265.843 283.644C266.902 276.389 260.446 262.078 260.446 262.078C255.44 261.613 250.186 262.878 245.983 264.375C245.975 264.383 245.975 264.383 245.975 264.375C241.088 266.129 237.617 268.217 237.585 268.31L237.92 269.024L238.031 269.249L227.516 269.575L218.107 269.87L217.892 269.878V269.893L216.937 284.436Z" fill="white"/>
<mask id="mask16_58_6154" style="mask-type:luminance" maskUnits="userSpaceOnUse" x="216" y="261" width="50" height="28">
<path d="M216.937 284.436C216.937 284.436 261.951 291.801 265.191 285.786C265.517 285.181 265.732 284.459 265.843 283.644C266.902 276.389 260.446 262.078 260.446 262.078C255.44 261.613 250.186 262.878 245.983 264.375C245.975 264.383 245.975 264.383 245.975 264.375C241.088 266.129 237.617 268.217 237.585 268.31L237.92 269.024L238.031 269.249L227.516 269.575L218.107 269.87L217.892 269.878V269.893L216.937 284.436Z" fill="white"/>
</mask>
<g mask="url(#mask16_58_6154)">
<path opacity="0.2" d="M237.92 269.024C248.22 269.218 252.128 270.599 252.128 270.599C252.128 270.599 249.525 266.603 245.983 264.375C245.975 264.383 245.975 264.383 245.975 264.375C241.088 266.129 237.617 268.217 237.585 268.31L237.92 269.024Z" fill="#2196F3"/>
<path opacity="0.2" d="M216.937 284.436C216.937 284.436 261.951 291.801 265.191 285.786C265.517 285.181 265.732 284.459 265.843 283.644C264.689 284.071 263.511 284.351 262.365 284.389C256.474 284.591 226.768 281.014 226.768 281.014L227.516 269.575L227.54 269.202C224.69 269.342 221.554 269.552 218.107 269.87C218.035 269.878 217.964 269.885 217.892 269.893L216.937 284.436Z" fill="#2196F3"/>
</g>
<path d="M216.937 284.436C216.937 284.436 261.951 291.801 265.191 285.786C265.517 285.181 265.732 284.459 265.843 283.644C266.902 276.389 260.446 262.078 260.446 262.078C255.44 261.613 250.186 262.878 245.983 264.375C245.975 264.383 245.975 264.383 245.975 264.375C241.088 266.129 237.617 268.217 237.585 268.31L237.92 269.024L238.031 269.249L227.516 269.575L218.107 269.87L217.892 269.878V269.893L216.937 284.436Z" stroke="#212121" stroke-miterlimit="10" stroke-linecap="round" stroke-linejoin="round"/>
<path d="M238.033 269.246C238.033 269.246 248.665 268.972 253.197 270.997" stroke="#212121" stroke-miterlimit="10" stroke-linecap="round" stroke-linejoin="round"/>
<path d="M203.254 219.27C203.254 219.27 198.393 227.823 187.077 227.284C177.816 226.831 171.492 219.986 171.492 219.986C174.819 217.356 175.313 210.993 175.081 206.814C175.073 206.72 175.073 206.632 175.066 206.537C175.051 206.267 175.028 205.997 175.006 205.734C174.751 202.717 174.159 200.445 174.159 200.445L201.868 201.797C200.677 205.025 200.152 207.729 200.047 209.957C199.98 211.352 200.078 212.564 200.265 213.609C200.272 213.654 200.28 213.69 200.286 213.726C201.052 217.743 203.254 219.27 203.254 219.27Z" fill="white" stroke="#212121" stroke-miterlimit="10"/>
<path d="M141.318 280.789V283.675C141.318 284.583 142.072 285.318 143.003 285.318H232.202C233.132 285.318 233.887 284.583 233.887 283.675V280.789H141.318Z" fill="#212121" stroke="#212121" stroke-miterlimit="10" stroke-linecap="round" stroke-linejoin="round"/>
<path d="M244.841 238.318L233.347 280.16C233.107 281.008 232.387 281.746 231.548 282.068C231.248 282.184 230.941 282.25 230.627 282.25H144.578C144.263 282.25 143.956 282.184 143.656 282.068C142.817 281.746 142.097 281.008 141.858 280.16L130.363 238.318C130.041 237.164 130.745 236.228 131.93 236.228H243.274C244.459 236.227 245.164 237.163 244.841 238.318Z" fill="#BFBFBF" stroke="#212121" stroke-miterlimit="10"/>
<path d="M242.968 240.508L231.548 282.068C231.248 282.184 230.941 282.25 230.626 282.25H144.577C144.263 282.25 143.956 282.184 143.656 282.068L132.236 240.508C131.915 239.354 132.618 238.419 133.803 238.419H241.401C242.586 238.419 243.29 239.354 242.968 240.508Z" fill="#999999" stroke="#212121" stroke-miterlimit="10" stroke-linecap="round" stroke-linejoin="round"/>
<path d="M193.429 263.895C190.883 263.895 188.819 262.407 188.819 260.574C188.819 260.151 188.934 259.747 189.134 259.375C188.641 259.289 188.13 259.238 187.601 259.238C184.032 259.238 181.139 261.324 181.139 263.895C181.139 266.468 184.032 268.552 187.601 268.552C191.171 268.552 194.064 266.468 194.064 263.895C194.064 263.883 194.062 263.873 194.062 263.86C193.855 263.881 193.645 263.895 193.429 263.895Z" fill="#BFBFBF" stroke="#212121" stroke-miterlimit="10"/>
<path d="M201.869 201.796C200.678 205.024 200.154 207.728 200.048 209.956C197.044 212.892 193.356 215.078 189.289 214.456C183.406 213.55 178.513 209.313 175.007 205.734C174.752 202.717 174.16 200.445 174.16 200.445L201.869 201.796Z" fill="#212121"/>
<path d="M207.514 182.129C207.514 182.129 209.748 179.763 210.845 180.541C211.945 181.319 213.242 183.525 212.643 185.535C212.045 187.546 209.448 191.048 209.249 193.092C209.05 195.133 207.704 197.448 206.232 196.097C204.758 194.745 207.514 182.129 207.514 182.129Z" fill="white" stroke="#212121" stroke-miterlimit="10"/>
<path d="M167.691 182.129C167.691 182.129 165.456 179.763 164.357 180.541C163.26 181.319 161.963 183.525 162.561 185.535C163.16 187.546 165.754 191.048 165.954 193.092C166.154 195.133 167.498 197.448 168.972 196.097C170.445 194.745 167.691 182.129 167.691 182.129Z" fill="white" stroke="#212121" stroke-miterlimit="10"/>
<path d="M187.131 154.77C215.232 154.77 208.55 191.258 203.38 202.971C201.565 207.086 192.153 212.485 187.602 212.485C183.37 212.485 173.686 206.032 171.968 202.169C166.738 190.396 160.344 154.77 187.131 154.77Z" fill="white" stroke="#212121" stroke-miterlimit="10"/>
<path d="M191.894 183.873C191.894 183.873 199.06 182.591 201.472 185.347" stroke="#212121" stroke-miterlimit="10" stroke-linecap="round" stroke-linejoin="round"/>
<path d="M197.311 189.142C197.311 189.984 196.873 190.665 196.332 190.665C195.79 190.665 195.353 189.984 195.353 189.142C195.353 188.299 195.791 187.617 196.332 187.617C196.873 187.618 197.311 188.299 197.311 189.142Z" fill="#212121"/>
<path d="M183.311 183.873C183.311 183.873 176.705 183.306 173.73 185.347" stroke="#212121" stroke-miterlimit="10" stroke-linecap="round" stroke-linejoin="round"/>
<path d="M177.893 189.142C177.893 189.984 178.332 190.665 178.872 190.665C179.412 190.665 179.85 189.984 179.85 189.142C179.85 188.299 179.412 187.617 178.872 187.617C178.332 187.618 177.893 188.299 177.893 189.142Z" fill="#212121"/>
<path d="M198.762 164.099C198.762 164.099 188.683 167.796 177.108 164.099C177.108 164.099 173.315 163.883 171.818 165.742C170.322 167.602 171.818 173.342 172.217 175.677C172.617 178.011 168.924 179.633 169.422 185.535L167.994 187.572C167.994 187.572 164.03 178.075 165.028 169.901C166.026 161.73 171.319 158.553 171.319 158.553C171.319 158.553 173.73 151.496 187.871 151.55C203.112 151.606 204.651 159.648 204.651 159.648C204.651 159.648 214.983 166.366 207.34 188.257L205.681 185.535C205.681 185.535 206.486 181.124 203.751 177.233C202.42 175.339 204.549 169.645 204.05 166.725C203.551 163.807 198.762 164.099 198.762 164.099Z" fill="#212121"/>
<path d="M189.274 187.618C189.274 187.618 189.697 193.85 190.935 196.219C192.172 198.588 187.841 198.988 185.986 197.582" stroke="#212121" stroke-miterlimit="10" stroke-linecap="round" stroke-linejoin="round"/>
<path d="M182.2 202.579C182.2 203.53 185.416 204.724 188.569 204.724C191.746 204.724 194.096 203.431 193.627 202.957" stroke="#212121" stroke-miterlimit="10" stroke-linecap="round" stroke-linejoin="round"/>
<path d="M207.177 168.092C207.177 168.092 203.055 173.559 193.69 177.333V174.729C193.69 174.729 185.227 179.49 177.603 178.763L179.328 175.38C179.328 175.38 172.904 182.018 167.464 181.757C162.025 181.498 160.447 151.549 187.871 151.549C210.157 151.549 207.177 168.092 207.177 168.092Z" fill="#212121"/>
<path d="M202.557 169.903C202.557 169.903 201.093 177.826 208.756 183.626C208.756 183.626 213.297 178.866 211.548 169.903C209.8 160.938 205.797 160.66 205.797 160.66L202.557 169.903Z" fill="#212121"/>
<path opacity="0.2" d="M199.144 157.531C199.144 157.531 196.288 169.365 185.776 175.379" stroke="white" stroke-miterlimit="10"/>
<path opacity="0.2" d="M192.461 157.531C192.461 157.531 187.801 169.171 170.488 171.111" stroke="white" stroke-miterlimit="10"/>
<path opacity="0.2" d="M203.255 161.884C203.255 161.884 203.323 168.007 199.144 171.111" stroke="white" stroke-miterlimit="10"/>
<path d="M303.741 70.4282L311.645 55.4817" stroke="#212121" stroke-miterlimit="10" stroke-linecap="round" stroke-linejoin="round"/>
<path d="M311.645 78.5346L329.422 68.1319" stroke="#212121" stroke-miterlimit="10" stroke-linecap="round" stroke-linejoin="round"/>
<path d="M318.995 91.0141L334.431 90.0611" stroke="#212121" stroke-miterlimit="10" stroke-linecap="round" stroke-linejoin="round"/>
<path d="M65.8143 297.347H53.501V287.034C53.501 286.086 54.289 285.318 55.2617 285.318H319.943C320.916 285.318 321.704 286.086 321.704 287.034V297.347" fill="white"/>
<path d="M65.8143 297.347H53.501V287.034C53.501 286.086 54.289 285.318 55.2617 285.318H319.943C320.916 285.318 321.704 286.086 321.704 287.034V297.347" stroke="#212121" stroke-miterlimit="10"/>
<path d="M307.4 297.347H197.311" stroke="#212121" stroke-miterlimit="10"/>
<path d="M189.429 297.347H181.517" stroke="#212121" stroke-miterlimit="10"/>
<path d="M130.285 297.347H72.1821" stroke="#212121" stroke-miterlimit="10"/>
</svg>
