<svg width="360" height="312" viewBox="0 0 360 312" fill="none" xmlns="http://www.w3.org/2000/svg">
<path d="M347.111 156.834C332.544 194.442 298.502 222.972 263.126 236.548C235.667 247.086 206.452 246.045 177.332 236.995C149.702 228.408 124.299 214.481 95.9531 220.759C73.689 225.691 48.587 232.751 28.467 212.433C18.422 202.289 11.755 188.533 7.35397 174.451C-6.62105 129.744 0.395966 82.4433 30.319 53.0973C55.955 27.9563 92.601 15.8383 127.956 17.9853C134.68 18.3933 141.424 19.3463 148.098 20.9703C165.563 25.2193 184.624 31.8723 202.549 29.4603C223.667 26.6183 238.323 10.5603 257.562 3.19529C277.433 -4.41271 298.04 4.57729 313.874 21.7073C347.015 57.5613 364.662 111.518 347.111 156.834Z" fill="#2196F3"/>
<path opacity="0.7" d="M347.111 156.834C332.544 194.442 298.502 222.972 263.126 236.548C235.667 247.086 206.452 246.045 177.332 236.995C149.702 228.408 124.299 214.481 95.9531 220.759C73.689 225.691 48.587 232.751 28.467 212.433C18.422 202.289 11.755 188.533 7.35397 174.451C-6.62105 129.744 0.395966 82.4433 30.319 53.0973C55.955 27.9563 92.601 15.8383 127.956 17.9853C134.68 18.3933 141.424 19.3463 148.098 20.9703C165.563 25.2193 184.624 31.8723 202.549 29.4603C223.667 26.6183 238.323 10.5603 257.562 3.19529C277.433 -4.41271 298.04 4.57729 313.874 21.7073C347.015 57.5613 364.662 111.518 347.111 156.834Z" fill="white"/>
<path d="M224.377 42.218H139.729L140.585 34.3521H225.234L224.377 42.218Z" fill="white"/>
<path d="M224.377 53.232H139.729L140.585 45.3651H225.234L224.377 53.232Z" fill="white"/>
<path d="M224.377 64.245H139.729L140.585 56.3781H225.234L224.377 64.245Z" fill="white"/>
<path d="M224.377 75.258H139.729L140.585 67.392H225.234L224.377 75.258Z" fill="white"/>
<path d="M224.377 86.272H139.729L140.585 78.405H225.234L224.377 86.272Z" fill="white"/>
<path d="M224.377 97.285H139.729L140.585 89.418H225.234L224.377 97.285Z" fill="white"/>
<path d="M224.377 108.298H139.729L140.585 100.432H225.234L224.377 108.298Z" fill="white"/>
<path d="M224.377 119.312H139.729L140.585 111.445H225.234L224.377 119.312Z" fill="white"/>
<path d="M224.377 130.325H139.729L140.585 122.458H225.234L224.377 130.325Z" fill="white"/>
<path d="M224.377 141.338H139.729L140.585 133.472H225.234L224.377 141.338Z" fill="white"/>
<path d="M224.377 152.352H139.729L140.585 144.485H225.234L224.377 152.352Z" fill="white"/>
<path d="M313.88 42.218H229.231L230.088 34.3521H314.737L313.88 42.218Z" fill="white"/>
<path d="M313.88 53.232H229.231L230.088 45.3651H314.737L313.88 53.232Z" fill="white"/>
<path d="M313.88 64.245H229.231L230.088 56.3781H314.737L313.88 64.245Z" fill="white"/>
<path d="M313.88 75.258H229.231L230.088 67.392H314.737L313.88 75.258Z" fill="white"/>
<path d="M313.88 86.272H229.231L230.088 78.405H314.737L313.88 86.272Z" fill="white"/>
<path d="M313.88 97.285H229.231L230.088 89.418H314.737L313.88 97.285Z" fill="white"/>
<path d="M313.88 108.298H229.231L230.088 100.432H314.737L313.88 108.298Z" fill="white"/>
<path d="M313.88 119.312H229.231L230.088 111.445H314.737L313.88 119.312Z" fill="white"/>
<path d="M313.88 130.325H229.231L230.088 122.458H314.737L313.88 130.325Z" fill="white"/>
<path d="M313.88 141.338H229.231L230.088 133.472H314.737L313.88 141.338Z" fill="white"/>
<path d="M313.88 152.352H229.231L230.088 144.485H314.737L313.88 152.352Z" fill="white"/>
<path d="M75.2804 58.4431H41.4414C38.6094 58.4431 36.3145 60.7391 36.3145 63.5701C36.3145 66.4021 38.6104 68.6971 41.4414 68.6971H75.2804V58.4431Z" fill="white"/>
<path d="M75.2804 45.6251H41.4414C38.6094 45.6251 36.3145 47.9211 36.3145 50.7521C36.3145 53.5841 38.6104 55.8791 41.4414 55.8791H75.2804V45.6251Z" fill="white"/>
<path d="M90.6614 33.8331H78.3564V68.185H90.6614V33.8331Z" fill="white"/>
<path d="M106.043 33.8331H93.7383V68.185H106.043V33.8331Z" fill="white"/>
<path d="M121.424 33.8331H109.119V68.185H121.424V33.8331Z" fill="white"/>
<path opacity="0.15" d="M128.853 69.1021H32.2314V74.827H40.0704V89.018H44.7364V74.827H114.07V89.018H118.736V74.827H128.853V69.1021Z" fill="#212336"/>
<path d="M322.903 168.033C322.903 168.033 319.403 172.033 317.403 180.033C315.403 188.033 324.403 194.033 321.403 202.533C318.403 211.033 312.903 215.033 314.403 223.533C315.903 232.033 322.403 232.533 317.403 242.033C312.403 251.533 307.903 255.033 309.403 264.033C310.903 273.033 329.903 284.533 329.903 284.533C329.903 284.533 342.903 270.033 343.403 260.533C343.903 251.033 331.903 245.033 333.903 236.533C335.903 228.033 340.903 221.033 340.403 213.033C339.903 205.033 330.403 199.033 330.403 193.033C330.403 187.033 334.403 183.533 334.403 176.533C334.403 169.533 325.403 163.533 325.403 159.533C325.403 155.533 327.403 150.533 327.403 150.533C327.403 150.533 317.903 156.533 322.903 168.033Z" fill="#2196F3"/>
<path opacity="0.5" d="M322.903 168.033C322.903 168.033 319.403 172.033 317.403 180.033C315.403 188.033 324.403 194.033 321.403 202.533C318.403 211.033 312.903 215.033 314.403 223.533C315.903 232.033 322.403 232.533 317.403 242.033C312.403 251.533 307.903 255.033 309.403 264.033C310.903 273.033 329.903 284.533 329.903 284.533C329.903 284.533 342.903 270.033 343.403 260.533C343.903 251.033 331.903 245.033 333.903 236.533C335.903 228.033 340.903 221.033 340.403 213.033C339.903 205.033 330.403 199.033 330.403 193.033C330.403 187.033 334.403 183.533 334.403 176.533C334.403 169.533 325.403 163.533 325.403 159.533C325.403 155.533 327.403 150.533 327.403 150.533C327.403 150.533 317.903 156.533 322.903 168.033Z" fill="white"/>
<path d="M327.903 281.533L326.903 173.533" stroke="#212336" stroke-miterlimit="10" stroke-linecap="round" stroke-linejoin="round"/>
<path d="M337.989 256.811L328.192 266.609L317.088 256.811" stroke="#212336" stroke-miterlimit="10" stroke-linecap="round" stroke-linejoin="round"/>
<path d="M334.724 213.702L327.539 224.806L321.334 214.682" stroke="#212336" stroke-miterlimit="10" stroke-linecap="round" stroke-linejoin="round"/>
<path d="M322.967 181.044L327.212 186.269L330.805 180.064" stroke="#212336" stroke-miterlimit="10" stroke-linecap="round" stroke-linejoin="round"/>
<path d="M340.403 281.533H315.403V309.533H340.403V281.533Z" fill="#212336"/>
<path d="M218.875 196.09L228.289 308.104C228.392 308.814 229.075 309.289 229.761 309.128C230.343 308.991 230.73 308.439 230.669 307.834L224.26 196.09H218.875Z" fill="#212336" stroke="#212336" stroke-miterlimit="10" stroke-linecap="round" stroke-linejoin="round"/>
<path d="M282.104 196.09L291.549 308.478C291.652 309.188 292.335 309.663 293.021 309.502C293.602 309.365 293.991 308.813 293.929 308.208L287.5 196.091H282.104V196.09Z" fill="#212336" stroke="#212336" stroke-miterlimit="10" stroke-linecap="round" stroke-linejoin="round"/>
<path d="M117.847 196.09L112.88 307.123C112.827 307.727 113.222 308.285 113.806 308.429C114.495 308.599 115.171 308.133 115.265 307.424L123.222 196.089H117.847V196.09Z" fill="#212336" stroke="#212336" stroke-miterlimit="10" stroke-linecap="round" stroke-linejoin="round"/>
<path d="M59.5695 196.091L54.6185 306.75C54.5655 307.354 54.9605 307.912 55.5445 308.056C56.2335 308.226 56.9095 307.76 57.0035 307.051L64.9345 196.091H59.5695Z" fill="#212336" stroke="#212336" stroke-miterlimit="10" stroke-linecap="round" stroke-linejoin="round"/>
<path d="M294.403 189.886H56.0552V199.504H294.403V189.886Z" fill="white" stroke="#212336" stroke-miterlimit="10" stroke-linecap="round" stroke-linejoin="round"/>
<path d="M294.403 189.886H56.0552V193.185H294.403V189.886Z" fill="#212336" stroke="#212336" stroke-miterlimit="10" stroke-linecap="round" stroke-linejoin="round"/>
<path d="M294.403 189.886H210.577V199.504H294.403V189.886Z" fill="#212336" stroke="#212336" stroke-miterlimit="10" stroke-linecap="round" stroke-linejoin="round"/>
<path d="M297.389 186.685H53.0703V190.352H297.389V186.685Z" fill="white" stroke="#212336" stroke-miterlimit="10" stroke-linecap="round" stroke-linejoin="round"/>
<path d="M297.389 186.685H214.07V190.352H297.389V186.685Z" fill="#212336" stroke="#212336" stroke-miterlimit="10" stroke-linecap="round" stroke-linejoin="round"/>
<path d="M188.894 173.908L196.162 186.425H183.635L188.894 173.908Z" fill="#212336" stroke="#212336" stroke-miterlimit="10" stroke-linecap="round" stroke-linejoin="round"/>
<path d="M112.005 186.352H183.634C184.186 186.352 184.686 186.025 184.908 185.52L204.741 140.302C205.144 139.383 204.471 138.353 203.467 138.353H131.838C131.286 138.353 130.786 138.679 130.564 139.185L110.731 184.403C110.329 185.321 111.002 186.352 112.005 186.352Z" fill="#212336" stroke="#212336" stroke-miterlimit="10" stroke-linecap="round" stroke-linejoin="round"/>
<path d="M117.168 184.558H179.154C179.67 184.558 180.136 184.253 180.343 183.781L198.499 143.355C198.875 142.497 198.247 141.535 197.31 141.535H135.323C134.807 141.535 134.341 141.84 134.134 142.312L115.978 182.738C115.602 183.595 116.231 184.558 117.168 184.558Z" fill="white"/>
<mask id="mask0_58_2068" style="mask-type:luminance" maskUnits="userSpaceOnUse" x="115" y="141" width="84" height="44">
<path d="M117.168 184.558H179.154C179.67 184.558 180.136 184.253 180.343 183.781L198.499 143.355C198.875 142.497 198.247 141.535 197.31 141.535H135.323C134.807 141.535 134.341 141.84 134.134 142.312L115.978 182.738C115.602 183.595 116.231 184.558 117.168 184.558Z" fill="white"/>
</mask>
<g mask="url(#mask0_58_2068)">
<path d="M187.482 167.885C178.034 166.251 174.757 157.679 165.783 145.712C164.518 144.025 163.026 142.655 161.398 141.534H135.323C134.807 141.534 134.341 141.839 134.134 142.311L127.381 157.348C146.15 165.184 149.014 154.467 167.156 161.724C175.147 164.92 180.956 169.425 184.967 173.486L187.482 167.885Z" fill="#2196F3" stroke="#212336" stroke-miterlimit="10" stroke-linecap="round" stroke-linejoin="round"/>
<path d="M165.326 169.503C150.685 168.13 121.862 179.568 121.862 179.568L119.189 184.557H132.885C143.202 180.554 155.545 176.581 163.038 176.823C170.922 177.077 172.583 181.148 172.82 184.557H175.043C176.164 179.034 175.437 170.451 165.326 169.503Z" fill="#2196F3" stroke="#212336" stroke-miterlimit="10" stroke-linecap="round" stroke-linejoin="round"/>
<path d="M199.641 153.947C199.641 151.484 196.203 145.747 193.44 141.534H185.163C189.546 146.375 199.641 157.171 199.641 153.947Z" fill="#2196F3" stroke="#212336" stroke-miterlimit="10" stroke-linecap="round" stroke-linejoin="round"/>
</g>
<path d="M117.168 184.558H179.154C179.67 184.558 180.136 184.253 180.343 183.781L198.499 143.355C198.875 142.497 198.247 141.535 197.31 141.535H135.323C134.807 141.535 134.341 141.84 134.134 142.312L115.978 182.738C115.602 183.595 116.231 184.558 117.168 184.558Z" stroke="#212336" stroke-miterlimit="10" stroke-linecap="round" stroke-linejoin="round"/>
<path d="M269.137 186.974H289.097V181.856H269.137V186.974Z" fill="#212336"/>
<path d="M279.631 183.6C280.674 183.6 281.552 182.792 281.624 181.737L284.951 133.117C285.027 132.015 284.194 131.06 283.093 130.985C281.995 130.901 281.036 131.741 280.961 132.843L277.634 181.463C277.558 182.566 278.391 183.52 279.492 183.595C279.538 183.598 279.585 183.6 279.631 183.6Z" fill="#212336"/>
<path d="M283.21 135.492C283.821 135.492 284.423 135.214 284.816 134.686C285.476 133.8 285.292 132.547 284.405 131.888L251.604 108.807C251.169 108.484 250.555 108.574 250.233 109.008C249.91 109.442 250 110.056 250.434 110.379L282.017 135.097C282.376 135.364 282.795 135.492 283.21 135.492Z" fill="#212336"/>
<path d="M283.211 136.307C284.907 136.307 286.282 134.932 286.282 133.236C286.282 131.54 284.907 130.165 283.211 130.165C281.515 130.165 280.14 131.54 280.14 133.236C280.14 134.932 281.515 136.307 283.211 136.307Z" fill="#212336"/>
<path d="M250.457 113.789C252.153 113.789 253.528 112.414 253.528 110.718C253.528 109.022 252.153 107.647 250.457 107.647C248.761 107.647 247.386 109.022 247.386 110.718C247.386 112.414 248.761 113.789 250.457 113.789Z" fill="#212336"/>
<path d="M237.432 114.928L249.009 124.215L252.89 114.188C253.579 112.408 253.035 110.387 251.546 109.192C250.057 107.998 247.966 107.906 246.378 108.964L237.432 114.928Z" fill="#212336"/>
<path d="M228.753 186.352H274.516C274.869 186.352 275.188 186.143 275.33 185.82L288.001 156.93C288.259 156.343 287.828 155.685 287.187 155.685H241.423C241.07 155.685 240.751 155.894 240.609 156.217L227.938 185.106C227.681 185.693 228.111 186.352 228.753 186.352Z" fill="white" stroke="#212336" stroke-miterlimit="10" stroke-linecap="round" stroke-linejoin="round"/>
<path d="M233.041 184.102H272.089C272.39 184.102 272.662 183.924 272.783 183.648L283.594 158.998C283.814 158.497 283.447 157.935 282.9 157.935H243.852C243.551 157.935 243.279 158.113 243.158 158.389L232.347 183.039C232.127 183.54 232.494 184.102 233.041 184.102Z" fill="white"/>
<mask id="mask1_58_2068" style="mask-type:luminance" maskUnits="userSpaceOnUse" x="232" y="157" width="52" height="28">
<path d="M233.041 184.102H272.089C272.39 184.102 272.662 183.924 272.783 183.648L283.594 158.998C283.814 158.497 283.447 157.935 282.9 157.935H243.852C243.551 157.935 243.279 158.113 243.158 158.389L232.347 183.039C232.127 183.54 232.494 184.102 233.041 184.102Z" fill="white"/>
</mask>
<g mask="url(#mask1_58_2068)">
<path d="M262.555 159.811C261.712 158.736 260.719 157.863 259.635 157.15H242.272C241.929 157.15 241.618 157.344 241.48 157.645L236.983 167.224C249.481 172.216 251.389 165.389 263.47 170.012C268.791 172.048 272.66 174.918 275.33 177.505L277.006 173.936C270.713 172.896 268.531 167.434 262.555 159.811Z" fill="#2196F3" stroke="#212336" stroke-miterlimit="10" stroke-linecap="round" stroke-linejoin="round"/>
<path d="M262.25 174.967C252.501 174.093 233.307 181.379 233.307 181.379L231.527 184.557H240.647C247.517 182.007 255.737 179.476 260.726 179.63C265.976 179.792 267.082 182.385 267.24 184.557H268.72C269.467 181.039 268.983 175.571 262.25 174.967Z" fill="#2196F3" stroke="#212336" stroke-miterlimit="10" stroke-linecap="round" stroke-linejoin="round"/>
<path d="M280.971 157.15H275.459C278.378 160.233 285.1 167.111 285.1 165.058C285.1 163.488 282.811 159.834 280.971 157.15Z" fill="#2196F3" stroke="#212336" stroke-miterlimit="10" stroke-linecap="round" stroke-linejoin="round"/>
</g>
<path d="M233.041 184.102H272.089C272.39 184.102 272.662 183.924 272.783 183.648L283.594 158.998C283.814 158.497 283.447 157.935 282.9 157.935H243.852C243.551 157.935 243.279 158.113 243.158 158.389L232.347 183.039C232.127 183.54 232.494 184.102 233.041 184.102Z" stroke="#212336" stroke-miterlimit="10" stroke-linecap="round" stroke-linejoin="round"/>
<path d="M275.153 184.435H206.403V186.685H275.153V184.435Z" fill="white" stroke="#212336" stroke-miterlimit="10" stroke-linecap="round" stroke-linejoin="round"/>
<path d="M275.154 184.435H241.826V186.685H275.154V184.435Z" fill="white" stroke="#212336" stroke-miterlimit="10" stroke-linecap="round" stroke-linejoin="round"/>
<path d="M212.811 168.812H200.685V186.729H212.811V168.812Z" fill="white" stroke="#212336" stroke-miterlimit="10" stroke-linecap="round" stroke-linejoin="round"/>
<path d="M212.269 184.29H211.002C210.449 184.29 210.002 183.843 210.002 183.29C210.002 182.737 210.449 182.29 211.002 182.29H212.269C213.314 182.29 214.165 181.439 214.165 180.394V176.05C214.165 175.005 213.314 174.154 212.269 174.154H210.64C210.087 174.154 209.64 173.706 209.64 173.154C209.64 172.602 210.087 172.154 210.64 172.154H212.269C214.417 172.154 216.165 173.902 216.165 176.05V180.394C216.164 182.543 214.417 184.29 212.269 184.29Z" fill="white" stroke="#212336" stroke-miterlimit="10" stroke-linecap="round" stroke-linejoin="round"/>
<path d="M130.129 92.9711C130.129 92.9711 132.876 101.488 132.876 103.137C132.876 104.786 132.601 106.709 132.601 106.709L135.031 110.465C135.354 110.964 135.196 111.631 134.684 111.932L130.952 114.127C130.952 114.127 130.403 122.919 129.853 124.018C129.304 125.117 119.962 124.842 119.962 124.842L116.94 130.612L101.279 124.567L105.4 113.302L104.576 96.2671C104.576 96.2671 114.193 87.7511 130.129 92.9711Z" fill="white" stroke="#212336" stroke-miterlimit="10" stroke-linecap="round" stroke-linejoin="round"/>
<path d="M119.138 114.128L121.336 114.677C121.336 114.677 120.787 117.974 122.984 120.447" fill="white"/>
<path d="M119.138 114.128L121.336 114.677C121.336 114.677 120.787 117.974 122.984 120.447" stroke="#212336" stroke-miterlimit="10" stroke-linecap="round" stroke-linejoin="round"/>
<path d="M121.674 108.243L137.146 104.413" stroke="#212336" stroke-miterlimit="10" stroke-linecap="round" stroke-linejoin="round"/>
<path d="M133.163 104.107L136.686 104.26C136.686 104.26 137.911 108.243 134.235 108.702" stroke="#212336" stroke-miterlimit="10" stroke-linecap="round" stroke-linejoin="round"/>
<path d="M111.995 86.6521C111.995 86.6521 105.95 84.7291 102.928 92.9711C99.9059 101.213 105.401 111.929 105.401 113.303C105.401 114.677 110.072 115.776 113.644 115.776C117.216 115.776 119.139 114.128 119.139 114.128C119.139 114.128 117.765 108.633 118.864 107.534C119.963 106.435 122.711 108.908 122.711 108.908C122.711 108.908 124.359 108.633 125.184 108.084C126.008 107.535 130.13 105.337 128.756 102.864C127.382 100.391 124.635 98.1931 126.833 96.5451C129.031 94.8971 134.801 94.6221 135.076 89.4011C135.351 84.1811 132.054 83.0821 128.757 83.6311C125.46 84.1801 126.559 78.9601 120.24 79.7841C113.918 80.6071 110.896 84.1791 111.995 86.6521Z" fill="#212336" stroke="#212336" stroke-miterlimit="10" stroke-linecap="round" stroke-linejoin="round"/>
<path d="M112.952 105.361C112.2 106.842 111.972 107.979 111.972 107.979" stroke="white" stroke-width="0.5" stroke-miterlimit="10" stroke-linecap="round" stroke-linejoin="round"/>
<path d="M127.033 95.5481C127.033 95.5481 125.12 97.2211 119.144 99.6121C116.66 100.606 115.001 102.219 113.912 103.765" stroke="white" stroke-width="0.5" stroke-miterlimit="10" stroke-linecap="round" stroke-linejoin="round"/>
<path d="M126.555 100.09C126.555 100.09 119.622 104.632 116.515 105.588" stroke="white" stroke-width="0.5" stroke-miterlimit="10" stroke-linecap="round" stroke-linejoin="round"/>
<path d="M176.393 143.415C178.038 146.097 182.402 152.065 186.948 156.13C186.948 156.13 183.117 147.6 177.434 142.557C176.936 142.115 176.046 142.849 176.393 143.415Z" fill="#212336" stroke="#212336" stroke-miterlimit="10" stroke-linecap="round" stroke-linejoin="round"/>
<path d="M154.32 176.435L174.57 161.185C174.57 161.185 174.57 154.185 175.57 152.685C176.57 151.185 184.82 148.685 184.82 148.685C184.82 148.685 187.07 145.935 188.32 148.685C189.57 151.435 187.82 153.685 187.82 153.685C187.82 153.685 188.07 158.185 187.82 159.685C187.57 161.185 178.82 164.935 178.82 164.935C178.82 164.935 166.82 182.685 160.82 187.685C154.82 192.685 153.57 193.685 151.07 194.685C148.57 195.685 144.07 188.435 144.07 188.435L154.32 176.435Z" fill="white" stroke="#212336" stroke-miterlimit="10" stroke-linecap="round" stroke-linejoin="round"/>
<path d="M117.57 293.452C117.57 293.452 131.82 302.452 134.32 302.452C136.82 302.452 138.07 304.702 136.82 304.952C135.57 305.202 127.82 305.452 122.57 305.702C117.32 305.952 113.82 305.452 110.82 305.452C107.82 305.452 104.32 305.702 102.82 304.952C101.32 304.202 103.82 295.702 103.82 294.202C103.82 292.702 115.82 292.452 117.57 293.452Z" fill="#212336" stroke="#212336" stroke-miterlimit="10" stroke-linecap="round" stroke-linejoin="round"/>
<path d="M135.957 302.817C130.421 304.642 121.454 303.442 116.07 302.953C111.812 302.566 105.174 302.479 102.385 302.459C102.275 303.742 102.354 304.721 102.82 304.953C104.32 305.703 107.82 305.453 110.82 305.453C113.82 305.453 117.32 305.953 122.57 305.703C127.82 305.453 135.57 305.203 136.82 304.953C137.753 304.766 137.291 303.464 135.957 302.817Z" fill="white" stroke="#212336" stroke-miterlimit="10" stroke-linecap="round" stroke-linejoin="round"/>
<path d="M128.82 231.685L117.582 288.032L119.924 293.887C119.924 293.887 117.57 297.684 112.82 298.684C108.07 299.684 103.07 299.684 103.07 299.684C103.07 299.684 101.82 293.434 102.57 292.684C103.32 291.934 103.57 288.934 103.57 288.934L110.07 232.184L128.82 231.685Z" fill="#2196F3" stroke="#212336" stroke-miterlimit="10" stroke-linecap="round" stroke-linejoin="round"/>
<path d="M163.07 291.549C163.07 291.549 171.82 298.799 175.82 300.049C179.82 301.299 184.07 302.549 184.07 303.799C184.07 305.049 174.57 306.299 167.32 305.549C160.07 304.799 149.07 301.549 146.57 301.549C144.07 301.549 144.57 295.049 144.57 294.049C144.57 293.049 156.82 285.049 163.07 291.549Z" fill="#212336" stroke="#212336" stroke-miterlimit="10" stroke-linecap="round" stroke-linejoin="round"/>
<path d="M184.07 303.799C184.07 303.349 183.514 302.9 182.624 302.45C177.223 303.253 169.556 303.511 161.07 302.299C153.874 301.271 147.854 299.891 144.777 299.124C145.037 300.468 145.553 301.549 146.57 301.549C149.07 301.549 160.07 304.799 167.32 305.549C174.57 306.299 184.07 305.049 184.07 303.799Z" fill="white" stroke="#212336" stroke-miterlimit="10" stroke-linecap="round" stroke-linejoin="round"/>
<path d="M119.57 206.435C119.57 206.435 129.32 205.435 142.07 206.935C154.82 208.435 173.57 210.185 174.07 213.435C174.57 216.685 161.693 284.331 161.693 286.081C161.693 287.831 163.693 289.581 164.193 290.581C164.693 291.581 164.693 292.831 164.693 292.831C164.693 292.831 158.57 299.435 153.82 301.185C149.07 302.935 145.078 301.304 144.078 301.304C143.078 301.304 143.078 294.554 143.828 291.304C144.578 288.054 145.828 279.804 146.078 279.054C146.328 278.304 150.32 230.185 150.32 230.185C150.32 230.185 122.82 236.185 100.57 233.685C78.3197 231.185 76.0697 227.685 74.8197 222.435C73.5697 217.185 76.0697 206.685 76.0697 206.685L119.57 206.435Z" fill="#2196F3" stroke="#212336" stroke-miterlimit="10" stroke-linecap="round" stroke-linejoin="round"/>
<path d="M116.756 222.629C116.193 223.426 115.626 224.128 115.069 224.685" stroke="#212336" stroke-miterlimit="10" stroke-linecap="round" stroke-linejoin="round"/>
<path d="M123.57 209.185C123.57 209.185 121.33 214.91 118.606 219.686" stroke="#212336" stroke-miterlimit="10" stroke-linecap="round" stroke-linejoin="round"/>
<path d="M120.57 211.685C120.57 211.685 116.57 219.185 107.57 222.685" stroke="#212336" stroke-miterlimit="10" stroke-linecap="round" stroke-linejoin="round"/>
<path d="M167.618 225.452C168.467 225.126 169.29 224.787 170.069 224.435L167.618 225.452Z" fill="white"/>
<path d="M167.618 225.452C168.467 225.126 169.29 224.787 170.069 224.435" stroke="#212336" stroke-miterlimit="10" stroke-linecap="round" stroke-linejoin="round"/>
<path d="M150.32 230.185C150.32 230.185 157.606 228.819 164.49 226.56L150.32 230.185Z" fill="white"/>
<path d="M150.32 230.185C150.32 230.185 157.606 228.819 164.49 226.56" stroke="#212336" stroke-miterlimit="10" stroke-linecap="round" stroke-linejoin="round"/>
<path d="M98.5699 123.185C98.5699 123.185 79.0698 132.435 76.3198 134.185C73.5698 135.935 71.8198 157.685 71.8198 161.435C71.8198 165.185 74.5698 201.935 75.3198 208.185C76.0698 214.435 100.07 218.685 108.07 216.435C116.07 214.185 123.82 208.435 123.82 206.435C123.82 204.435 123.07 187.435 123.57 184.185C124.07 180.935 128.57 167.185 128.57 167.185L137.07 191.435C137.07 191.435 142.498 190.034 147.57 187.935C154.82 184.935 156.57 174.935 156.57 174.935C156.57 174.935 148.57 160.935 146.32 153.935C144.07 146.935 143.07 141.685 142.07 140.435C141.07 139.185 118.57 128.685 114.57 125.935C110.57 123.185 105.57 121.185 98.5699 123.185Z" fill="#212336" stroke="#212336" stroke-miterlimit="10" stroke-linecap="round" stroke-linejoin="round"/>
<path d="M128.57 167.185L122.07 157.685" stroke="white" stroke-width="0.75" stroke-miterlimit="10" stroke-linecap="round" stroke-linejoin="round"/>
<path d="M127.511 165.83L116.07 160.185" stroke="white" stroke-width="0.75" stroke-miterlimit="10" stroke-linecap="round" stroke-linejoin="round"/>
<path d="M93.5923 237.508L103.579 308.502C103.677 309.2 104.355 309.662 105.04 309.5C105.622 309.362 106.012 308.816 105.955 308.221L98.9183 236.34L93.5923 237.508Z" fill="#212336" stroke="#212336" stroke-miterlimit="10" stroke-linecap="round" stroke-linejoin="round"/>
<path d="M64.903 238.089L48.209 307.811C48.045 308.497 48.506 309.175 49.204 309.275C49.796 309.36 50.359 308.995 50.524 308.42L69.903 240.755L64.903 238.089Z" fill="#212336" stroke="#212336" stroke-miterlimit="10" stroke-linecap="round" stroke-linejoin="round"/>
<path d="M95.217 237.227L84.59 308.128C84.486 308.825 85.003 309.461 85.707 309.5C86.304 309.533 86.834 309.121 86.948 308.534L100.428 239.452L95.217 237.227Z" fill="#212336" stroke="#212336" stroke-miterlimit="10" stroke-linecap="round" stroke-linejoin="round"/>
<path d="M123.925 237.508L133.912 308.502C134.01 309.2 134.688 309.662 135.373 309.5C135.955 309.362 136.345 308.816 136.288 308.221L129.251 236.34L123.925 237.508Z" fill="#212336" stroke="#212336" stroke-miterlimit="10" stroke-linecap="round" stroke-linejoin="round"/>
<path d="M49.2363 187.755C49.2363 187.755 46.2363 175.088 46.5693 168.088C46.9023 161.088 53.2363 152.088 70.9022 153.088C88.5682 154.088 97.9022 171.088 96.5692 184.755C95.2362 198.422 96.5692 225.088 105.902 230.755C115.235 236.422 136.235 232.422 136.235 232.422C136.235 232.422 139.235 233.089 136.902 235.422C134.569 237.755 115.235 241.089 105.569 242.422C98.1942 243.439 79.5683 242.904 71.1493 242.594C66.7853 242.433 62.5723 240.69 59.5893 237.501C58.4643 236.298 57.4013 234.84 56.5683 233.09C51.6723 222.803 49.2363 187.755 49.2363 187.755Z" fill="white"/>
<mask id="mask2_58_2068" style="mask-type:luminance" maskUnits="userSpaceOnUse" x="46" y="153" width="92" height="91">
<path d="M49.2363 187.755C49.2363 187.755 46.2363 175.088 46.5693 168.088C46.9023 161.088 53.2363 152.088 70.9022 153.088C88.5682 154.088 97.9022 171.088 96.5692 184.755C95.2362 198.422 96.5692 225.088 105.902 230.755C115.235 236.422 136.235 232.422 136.235 232.422C136.235 232.422 139.235 233.089 136.902 235.422C134.569 237.755 115.235 241.089 105.569 242.422C98.1942 243.439 79.5683 242.904 71.1493 242.594C66.7853 242.433 62.5723 240.69 59.5893 237.501C58.4643 236.298 57.4013 234.84 56.5683 233.09C51.6723 222.803 49.2363 187.755 49.2363 187.755Z" fill="white"/>
</mask>
<g mask="url(#mask2_58_2068)">
<path d="M105.57 242.422C107.937 242.095 110.886 241.649 114.021 241.126C109.895 240.764 105.993 239.968 103.096 238.453C92.6593 232.994 91.1683 207.303 92.6593 194.136C94.1503 180.969 83.7133 164.592 63.9583 163.628C56.6002 163.269 51.0032 164.248 46.8532 165.965C46.6982 166.685 46.6032 167.397 46.5702 168.089C46.2372 175.089 49.2372 187.756 49.2372 187.756C49.2372 187.756 51.6732 222.804 56.5702 233.089C57.4032 234.839 58.4663 236.297 59.5913 237.5C62.5733 240.689 66.7873 242.432 71.1513 242.593C79.5693 242.904 98.1953 243.439 105.57 242.422Z" fill="#2196F3"/>
</g>
<mask id="mask3_58_2068" style="mask-type:luminance" maskUnits="userSpaceOnUse" x="46" y="153" width="92" height="91">
<path d="M49.2363 187.755C49.2363 187.755 46.2363 175.088 46.5693 168.088C46.9023 161.088 53.2363 152.088 70.9022 153.088C88.5682 154.088 97.9022 171.088 96.5692 184.755C95.2362 198.422 96.5692 225.088 105.902 230.755C115.235 236.422 136.235 232.422 136.235 232.422C136.235 232.422 139.235 233.089 136.902 235.422C134.569 237.755 115.235 241.089 105.569 242.422C98.1942 243.439 79.5683 242.904 71.1493 242.594C66.7853 242.433 62.5723 240.69 59.5893 237.501C58.4643 236.298 57.4013 234.84 56.5683 233.09C51.6723 222.803 49.2363 187.755 49.2363 187.755Z" fill="white"/>
</mask>
<g mask="url(#mask3_58_2068)">
<path opacity="0.5" d="M105.57 242.422C107.937 242.095 110.886 241.649 114.021 241.126C109.895 240.764 105.993 239.968 103.096 238.453C92.6593 232.994 91.1683 207.303 92.6593 194.136C94.1503 180.969 83.7133 164.592 63.9583 163.628C56.6002 163.269 51.0032 164.248 46.8532 165.965C46.6982 166.685 46.6032 167.397 46.5702 168.089C46.2372 175.089 49.2372 187.756 49.2372 187.756C49.2372 187.756 51.6732 222.804 56.5702 233.089C57.4032 234.839 58.4663 236.297 59.5913 237.5C62.5733 240.689 66.7873 242.432 71.1513 242.593C79.5693 242.904 98.1953 243.439 105.57 242.422Z" fill="white"/>
</g>
<path d="M49.2363 187.755C49.2363 187.755 46.2363 175.088 46.5693 168.088C46.9023 161.088 53.2363 152.088 70.9022 153.088C88.5682 154.088 97.9022 171.088 96.5692 184.755C95.2362 198.422 96.5692 225.088 105.902 230.755C115.235 236.422 136.235 232.422 136.235 232.422C136.235 232.422 139.235 233.089 136.902 235.422C134.569 237.755 115.235 241.089 105.569 242.422C98.1942 243.439 79.5683 242.904 71.1493 242.594C66.7853 242.433 62.5723 240.69 59.5893 237.501C58.4643 236.298 57.4013 234.84 56.5683 233.09C51.6723 222.803 49.2363 187.755 49.2363 187.755Z" stroke="#212336" stroke-miterlimit="10" stroke-linecap="round" stroke-linejoin="round"/>
<path d="M359.555 306.074H14.9854V311.532H359.555V306.074Z" fill="#212336"/>
</svg>
