<svg width="49" height="49" viewBox="0 0 49 49" fill="none" xmlns="http://www.w3.org/2000/svg">
<path d="M15.3125 22.9688H29.0938C31.1243 22.9688 33.0717 23.7754 34.5075 25.2112C35.9434 26.647 36.75 28.5944 36.75 30.625C36.75 32.6556 35.9434 34.603 34.5075 36.0388C33.0717 37.4746 31.1243 38.2812 29.0938 38.2812H15.3125V9.1875H26.7969C28.6244 9.1875 30.377 9.91347 31.6693 11.2057C32.9615 12.498 33.6875 14.2506 33.6875 16.0781C33.6875 17.9056 32.9615 19.6583 31.6693 20.9505C30.377 22.2428 28.6244 22.9687 26.7969 22.9688" stroke="#FFB32C" stroke-width="1.5" stroke-linecap="round" stroke-linejoin="round"/>
<path d="M12.25 9.1875H15.3125" stroke="#FFB32C" stroke-width="1.5" stroke-linecap="round" stroke-linejoin="round"/>
<path d="M12.25 38.2812H15.3125" stroke="#FFB32C" stroke-width="1.5" stroke-linecap="round" stroke-linejoin="round"/>
<path d="M19.9062 9.1875V4.59375" stroke="#FFB32C" stroke-width="1.5" stroke-linecap="round" stroke-linejoin="round"/>
<path d="M26.0312 9.1875V4.59375" stroke="#FFB32C" stroke-width="1.5" stroke-linecap="round" stroke-linejoin="round"/>
<path d="M19.9062 42.875V38.2812" stroke="#FFB32C" stroke-width="1.5" stroke-linecap="round" stroke-linejoin="round"/>
<path d="M26.0312 42.875V38.2812" stroke="#FFB32C" stroke-width="1.5" stroke-linecap="round" stroke-linejoin="round"/>
</svg>
