<svg width="129" height="43" viewBox="0 0 129 43" fill="none" xmlns="http://www.w3.org/2000/svg">
<path d="M44.5184 40.5997C42.4913 40.5997 41.0292 40.1178 40.1319 39.1541C39.2679 38.1572 38.8359 36.8114 38.8359 35.1166C38.8359 34.6181 38.8692 34.1031 38.9356 33.5714C39.0021 33.0397 39.1018 32.4249 39.2347 31.7271L44.5184 5.30859H52.4938L47.1104 32.0261C47.0772 32.2587 47.0439 32.4415 47.0107 32.5744C47.0107 32.7074 47.0107 32.8403 47.0107 32.9732C47.0107 33.4384 47.1104 33.7707 47.3098 33.9701C47.5424 34.1363 47.775 34.2194 48.0076 34.2194C48.1738 34.2194 48.3067 34.2194 48.4064 34.2194C48.5393 34.1861 48.7055 34.1529 48.9049 34.1197L48.6058 40.0015C48.1738 40.1344 47.6089 40.2674 46.911 40.4003C46.2132 40.5332 45.4156 40.5997 44.5184 40.5997Z" fill="white"/>
<path d="M58.781 40.5997C56.5878 40.5997 54.8764 39.8021 53.6469 38.2071C52.4173 36.612 51.8026 34.3523 51.8026 31.428C51.8026 29.0686 52.1681 26.8587 52.8992 24.7984C53.6303 22.7381 54.6106 20.9437 55.8401 19.4151C57.1029 17.8532 58.5152 16.6403 60.077 15.7763C61.6721 14.9123 63.3336 14.4803 65.0616 14.4803C66.125 14.4803 67.1386 14.7627 68.1023 15.3277C69.0992 15.8594 69.8136 16.6071 70.2456 17.5707H70.3453L71.4419 15.0784H77.8223L72.8376 40.0015H66.3576V36.9111H66.2579C65.1613 38.0409 63.9318 38.9381 62.5693 39.6027C61.2401 40.2674 59.9773 40.5997 58.781 40.5997ZM62.3699 34.1197C63.0346 34.1197 63.7656 33.9037 64.5632 33.4717C65.3939 33.0397 66.125 32.1591 66.7564 30.8298L68.3515 22.8544C68.0524 22.1898 67.637 21.708 67.1053 21.4089C66.6069 21.1098 66.125 20.9603 65.6598 20.9603C64.6961 20.9603 63.7823 21.3591 62.9183 22.1566C62.0875 22.9541 61.4062 24.0674 60.8746 25.4963C60.3429 26.9252 60.077 28.5701 60.077 30.4311C60.077 31.7271 60.2764 32.6741 60.6752 33.2723C61.1072 33.8372 61.6721 34.1197 62.3699 34.1197Z" fill="white"/>
<path d="M83.1866 40.0015L80.1958 15.0784H88.1712L88.6696 26.4434C88.7361 27.6729 88.7693 28.9357 88.7693 30.2317C88.7693 31.4944 88.7693 32.7904 88.7693 34.1197H88.9687C89.5336 32.8237 90.0653 31.5443 90.5638 30.2815C91.0955 29.0187 91.6272 27.7394 92.1589 26.4434L97.0438 15.0784H104.82L92.3582 40.0015H83.1866Z" fill="white"/>
<path d="M109.895 40.5997C107.702 40.5997 105.99 39.8021 104.761 38.2071C103.531 36.612 102.916 34.3523 102.916 31.428C102.916 29.0686 103.282 26.8587 104.013 24.7984C104.744 22.7381 105.724 20.9437 106.954 19.4151C108.217 17.8532 109.629 16.6403 111.191 15.7763C112.786 14.9123 114.447 14.4803 116.175 14.4803C117.239 14.4803 118.252 14.7627 119.216 15.3277C120.213 15.8594 120.927 16.6071 121.359 17.5707H121.459L122.556 15.0784H128.936L123.951 40.0015H117.471V36.9111H117.372C116.275 38.0409 115.046 38.9381 113.683 39.6027C112.354 40.2674 111.091 40.5997 109.895 40.5997ZM113.484 34.1197C114.148 34.1197 114.879 33.9037 115.677 33.4717C116.508 33.0397 117.239 32.1591 117.87 30.8298L119.465 22.8544C119.166 22.1898 118.751 21.708 118.219 21.4089C117.721 21.1098 117.239 20.9603 116.774 20.9603C115.81 20.9603 114.896 21.3591 114.032 22.1566C113.201 22.9541 112.52 24.0674 111.988 25.4963C111.457 26.9252 111.191 28.5701 111.191 30.4311C111.191 31.7271 111.39 32.6741 111.789 33.2723C112.221 33.8372 112.786 34.1197 113.484 34.1197Z" fill="white"/>
<g clip-path="url(#clip0_874_923)">
<path d="M27 29.3511C27 24.1573 22.1018 18.7219 18.7566 12.6826C15.4115 6.88483 13.5 -5.90104e-07 13.5 -5.90104e-07C13.5 -5.90104e-07 11.2301 7.00562 8.00443 12.8034C4.53982 18.8427 0.119471 24.5197 0.119471 29.4719C0.119471 36.9607 6.09292 43.1208 13.6195 43.1208C21.0265 43 27 36.9607 27 29.3511ZM6.45133 25.3652C6.45133 22.8287 8.84071 19.809 10.6327 16.6685C12.3053 13.6489 13.5 10.0253 13.5 10.0253C13.5 10.0253 14.4558 13.6489 16.2478 16.6685C18.0398 19.809 20.5487 22.5871 20.5487 25.3652C20.5487 29.3511 17.4425 32.4916 13.5 32.4916C9.55752 32.4916 6.45133 29.3511 6.45133 25.3652Z" fill="#FF4201"/>
</g>
<defs>
<clipPath id="clip0_874_923">
<rect width="43" height="27" fill="white" transform="translate(27) rotate(90)"/>
</clipPath>
</defs>
</svg>
