<svg width="40" height="45" viewBox="0 0 40 45" fill="none" xmlns="http://www.w3.org/2000/svg">
<g clip-path="url(#clip0_654_3816)">
<path d="M38.8639 31.1464C38.2958 30.3118 37.6275 30.3452 37.3601 30.412C37.1596 30.4454 36.9591 30.5121 36.6584 30.5789C35.3551 30.9127 32.9491 31.5804 28.5381 31.113C28.5047 31.0796 28.4378 31.0462 28.4044 31.0462C25.8313 29.544 22.5899 29.6442 19.9834 31.3133L18.9474 31.981L13.9015 32.1479C12.7653 32.1479 12.0636 32.6152 11.6626 32.9824C11.3284 33.3163 11.0945 33.7169 10.9942 34.1842L9.15629 33.3163L5.48044 25.7718C5.17969 25.1375 4.64502 24.6367 3.94326 24.4031C3.20809 24.136 2.40609 24.2028 1.67091 24.5366C0.233989 25.2043 -0.367515 26.7065 0.267406 28.1419L4.47793 37.3222C4.54477 37.4891 4.67843 37.6227 4.8121 37.6894L13.701 42.7636C14.7703 43.3645 15.9065 43.9988 17.1429 44.4327C18.1789 44.8 19.2482 44.9001 20.1504 44.9669C20.6517 45.0003 21.153 45.0336 21.6876 45.0336C23.7261 45.0336 25.6976 44.7666 27.6358 44.4995H27.6692C28.5047 44.3994 29.3401 44.2658 30.1755 44.1657C32.0803 43.9654 35.0544 44.0322 36.3576 44.2658C36.9257 44.366 37.9616 44.2992 38.7971 43.0307C40.6016 40.1597 40.1672 33.0826 38.8639 31.1464ZM20.2507 43.2643C19.2482 43.1976 18.4128 43.0974 17.6776 42.8304C16.5748 42.4632 15.5723 41.8957 14.503 41.2948L5.84802 36.3541L1.77117 27.4409C1.57066 26.9735 1.60408 26.3727 2.33925 26.0388C2.77367 25.8385 3.14126 25.8719 3.37518 25.9721C3.64251 26.0722 3.84301 26.2391 3.94326 26.4728L7.75279 34.3178C7.85304 34.4847 7.9867 34.6182 8.15379 34.7184L11.1279 36.087C11.5623 37.0885 12.5314 37.656 13.701 37.6894L18.513 37.7562H23.7929C24.2607 37.7562 24.6283 37.389 24.6283 36.9216C24.6283 36.4543 24.2607 36.087 23.7929 36.087H18.5464L13.7678 36.0203C13.3668 36.0203 12.8322 35.8868 12.6651 35.3192C12.6651 35.2859 12.6316 35.2191 12.6316 35.1857C12.5982 35.0856 12.5982 34.952 12.5982 34.8185C12.5982 34.5848 12.6985 34.3511 12.899 34.1508C13.1329 33.9172 13.5005 33.7836 13.9683 33.7836L19.2816 33.5833C19.4153 33.5833 19.5824 33.5166 19.6826 33.4498L20.919 32.6486C22.9909 31.3467 25.564 31.2465 27.6024 32.4149C27.6692 32.4483 27.7695 32.5151 27.8363 32.5485C27.9366 32.6152 28.0702 32.6486 28.2039 32.682C33.0159 33.2161 35.6893 32.5151 37.1262 32.1145C37.2933 32.0811 37.427 32.0477 37.5606 32.0143C38.0619 32.6486 38.8639 37.0885 37.9951 40.5603C37.8614 41.0611 37.427 42.6301 36.6918 42.4965C35.2549 42.2629 32.1137 42.1627 30.0753 42.3964C29.2064 42.4965 28.3376 42.5967 27.4687 42.7302C24.9625 43.1308 22.6567 43.4646 20.2507 43.2643Z" fill="#FFB32C"/>
<path d="M10.2576 10.2819H12.5634V23.7018C12.5634 24.6031 13.2986 25.3375 14.2008 25.3375H25.7631C26.6653 25.3375 27.4005 24.6031 27.4005 23.7018V10.2819H29.7063C30.7088 10.2819 31.5108 9.48071 31.5108 8.47923V1.80267C31.5108 0.801187 30.7088 0 29.7063 0H10.2576C9.25513 0 8.45312 0.801187 8.45312 1.80267V8.47923C8.45313 9.48071 9.25513 10.2819 10.2576 10.2819ZM10.2576 8.61276C10.1908 8.61276 10.124 8.54599 10.124 8.47923V1.80267C10.124 1.73591 10.1908 1.66914 10.2576 1.66914H12.5634V8.61276H10.2576ZM25.9302 1.66914V23.7018C25.9302 23.7685 25.8633 23.8353 25.7965 23.8353H14.2008C14.134 23.8353 14.0672 23.7685 14.0672 23.7018V1.66914H25.9302ZM27.4339 1.66914H29.7397C29.8065 1.66914 29.8733 1.73591 29.8733 1.80267V8.47923C29.8733 8.54599 29.8065 8.61276 29.7397 8.61276H27.4339V1.66914Z" fill="#FFB32C"/>
<path d="M19.9817 17.7947C22.7887 17.7947 25.0611 15.5246 25.0611 12.7205C25.0611 9.94972 22.7887 7.67969 19.9817 7.67969C17.1747 7.67969 14.9023 9.94972 14.9023 12.7539C14.9358 15.5246 17.2081 17.7947 19.9817 17.7947ZM16.2724 12.7205C16.2724 10.6508 17.9433 8.98162 20.0151 8.98162C22.087 8.98162 23.7244 10.6841 23.7244 12.7205C23.7244 14.7902 22.0536 16.4594 19.9817 16.4594C17.9099 16.4594 16.2724 14.7902 16.2724 12.7205Z" fill="#FFB32C"/>
<path d="M19.9829 22.4313C20.8688 22.4313 21.5869 21.7139 21.5869 20.8289C21.5869 19.944 20.8688 19.2266 19.9829 19.2266C19.097 19.2266 18.3789 19.944 18.3789 20.8289C18.3789 21.7139 19.097 22.4313 19.9829 22.4313Z" fill="#FFB32C"/>
<path d="M19.9829 6.20865C20.8688 6.20865 21.5869 5.49125 21.5869 4.60628C21.5869 3.72131 20.8688 3.00391 19.9829 3.00391C19.097 3.00391 18.3789 3.72131 18.3789 4.60628C18.3789 5.49125 19.097 6.20865 19.9829 6.20865Z" fill="#FFB32C"/>
</g>
<defs>
<clipPath id="clip0_654_3816">
<rect width="40" height="45" fill="white"/>
</clipPath>
</defs>
</svg>
