<svg width="26" height="37" viewBox="0 0 26 37" fill="none" xmlns="http://www.w3.org/2000/svg">
<g clip-path="url(#clip0_654_3559)">
<path d="M0.171053 23.2653C-0.256579 23.965 0.256579 24.8397 1.11184 24.8397H5.81579C6.41447 26.0643 7.18421 27.114 8.03947 27.9887L5.73026 32.0998C4.96053 32.2747 4.27632 32.6246 3.76316 33.1494C3.07895 32.4497 2.13816 32.0123 1.11184 32.0123C0.513158 32.0123 0 32.5371 0 33.1494C0 33.7617 0.513158 34.2865 1.11184 34.2865C1.96711 34.2865 2.65132 34.9863 2.65132 35.861C2.65132 36.4733 3.16447 36.9981 3.76316 36.9981C4.36184 36.9981 4.875 36.4733 4.875 35.861C4.875 34.9863 5.55921 34.2865 6.41447 34.2865C7.26974 34.2865 7.95395 34.9863 7.95395 35.861C7.95395 36.4733 8.46711 36.9981 9.06579 36.9981C9.66447 36.9981 10.1776 36.4733 10.1776 35.861C10.1776 34.2865 11.4605 32.9745 13 32.9745C14.5395 32.9745 15.8224 34.2865 15.8224 35.861C15.8224 36.4733 16.3355 36.9981 16.9342 36.9981C17.5329 36.9981 18.0461 36.4733 18.0461 35.861C18.0461 34.9863 18.7303 34.2865 19.5855 34.2865C20.4408 34.2865 21.125 34.9863 21.125 35.861C21.125 36.4733 21.6382 36.9981 22.2368 36.9981C22.8355 36.9981 23.3487 36.4733 23.3487 35.861C23.3487 34.9863 24.0329 34.2865 24.8882 34.2865C25.4868 34.2865 26 33.7617 26 33.1494C26 32.5371 25.4868 32.0123 24.8882 32.0123C23.8618 32.0123 22.9211 32.4497 22.2368 33.1494C21.7237 32.6246 21.0395 32.2747 20.2697 32.0998L17.9605 27.9887C18.8158 27.114 19.5855 26.0643 20.1842 24.8397H24.8882C25.6579 24.8397 26.2566 23.965 25.8289 23.2653L22.0658 16.1802C21.9803 12.3315 20.9539 7.95793 19.2434 4.80899C15.9079 -1.40141 10.7763 -1.75129 7.26974 4.54658C5.47368 7.69552 4.36184 12.1565 4.27632 16.1802L0.171053 23.2653ZM2.90789 22.653L4.27632 20.1163C4.44737 20.991 4.61842 21.8657 4.875 22.653H2.90789ZM12.9145 30.7002C11.2039 30.7002 9.66447 31.5749 8.80921 32.9745C8.55263 32.7995 8.29605 32.6246 8.03947 32.4496L10.0921 28.8634H15.9079L17.9605 32.4496C17.7039 32.6246 17.4474 32.7995 17.1908 32.9745C16.1645 31.5749 14.625 30.7002 12.9145 30.7002ZM15.9934 26.6766H9.75C7.52632 24.6648 6.07237 20.7286 6.07237 16.4426C6.07237 13.0312 6.92763 9.35746 8.29605 6.5584C11.0329 7.78299 14.625 7.87046 17.5329 6.73334C18.8158 9.5324 19.6711 13.1187 19.6711 16.4426C19.6711 20.7286 18.2171 24.6648 15.9934 26.6766ZM20.8684 22.653C21.125 21.8657 21.3816 20.991 21.4671 20.1163L22.8355 22.653H20.8684ZM12.9145 2.18488C14.1118 2.18488 15.3947 3.14705 16.5066 4.80899C14.625 5.42129 12.4013 5.50876 10.3487 4.89646C10.0921 4.80899 9.75 4.72152 9.49342 4.63405C10.5197 2.97211 11.7171 2.18488 12.9145 2.18488Z" fill="#FFB32C"/>
<path d="M12.9145 10.9336C10.2632 10.9336 8.125 13.1204 8.125 15.8319C8.125 18.5435 10.2632 20.7303 12.9145 20.7303C15.5658 20.7303 17.7039 18.5435 17.7039 15.8319C17.6184 13.0329 15.4803 10.9336 12.9145 10.9336ZM12.9145 18.4561C11.4605 18.4561 10.2632 17.2315 10.2632 15.7445C10.2632 14.2575 11.4605 13.0329 12.9145 13.0329C14.3684 13.0329 15.5658 14.2575 15.5658 15.7445C15.4803 17.2315 14.3684 18.4561 12.9145 18.4561Z" fill="#FFB32C"/>
</g>
<defs>
<clipPath id="clip0_654_3559">
<rect width="26" height="37" fill="white"/>
</clipPath>
</defs>
</svg>
